<svg width="789" height="1445" viewBox="0 0 789 1445" fill="none" xmlns="http://www.w3.org/2000/svg">
<mask id="mask0_270_519" style="mask-type:alpha" maskUnits="userSpaceOnUse" x="0" y="0" width="789" height="1445">
<rect width="789" height="1445" fill="#D9D9D9"/>
</mask>
<g mask="url(#mask0_270_519)">
<mask id="mask1_270_519" style="mask-type:alpha" maskUnits="userSpaceOnUse" x="0" y="-2" width="1938" height="1449">
<path d="M353.202 1.53508C355.572 1.53202 357.942 1.52853 360.313 1.52467C366.724 1.51566 373.135 1.51323 379.545 1.51257C383.559 1.51185 387.572 1.50966 391.585 1.50695C404.886 1.49798 418.186 1.49321 431.487 1.49398C432.202 1.49402 432.917 1.49406 433.654 1.49411C434.37 1.49415 435.086 1.49419 435.824 1.49423C447.416 1.49465 459.009 1.48486 470.602 1.47043C482.543 1.45568 494.485 1.44885 506.426 1.44954C513.115 1.4498 519.804 1.44694 526.493 1.43606C532.789 1.42609 539.085 1.42611 545.381 1.43352C547.679 1.43458 549.977 1.43221 552.275 1.42598C585.955 1.34067 585.955 1.34067 600.337 6.5449C601.11 6.81345 601.883 7.08199 602.68 7.35868C612.966 11.0459 621.622 16.215 629.972 23.1752C630.802 23.8348 631.632 24.4944 632.487 25.174C649.2 39.0696 660.391 60.1506 663.101 81.5091C664.563 107.6 660.742 131.524 643.431 152.124C642.706 152.994 641.981 153.865 641.235 154.762C624.627 173.842 602.507 184.687 577.172 186.919C575.132 187.02 573.091 187.121 571.05 187.209C552.02 188.064 536.937 193.99 523.337 207.387C522.676 208.017 522.016 208.646 521.335 209.294C507.755 223.257 505.268 241.423 505.289 259.936C505.28 261.571 505.269 263.207 505.257 264.842C505.229 269.239 505.219 273.636 505.213 278.033C505.203 282.645 505.176 287.256 505.151 291.867C505.106 300.579 505.076 309.292 505.052 318.005C505.024 327.932 504.979 337.86 504.932 347.787C504.836 368.19 504.762 388.594 504.702 408.997C495.477 408.997 486.253 408.997 476.749 408.997C476.677 387.53 476.621 366.063 476.588 344.596C476.572 334.627 476.55 324.658 476.514 314.689C476.483 305.994 476.463 297.298 476.457 288.602C476.453 284.004 476.443 279.406 476.42 274.808C476.399 270.467 476.393 266.126 476.397 261.784C476.397 260.204 476.391 258.623 476.379 257.042C476.21 233.825 481.869 211.572 497.082 193.35C497.925 192.337 498.769 191.324 499.639 190.281C500.285 189.509 500.93 188.738 501.596 187.943C500.252 187.939 500.252 187.939 498.88 187.935C477.007 187.875 455.133 187.797 433.26 187.702C422.682 187.656 412.104 187.615 401.526 187.588C392.299 187.565 383.072 187.53 373.845 187.484C368.966 187.459 364.087 187.44 359.208 187.434C354.601 187.427 349.995 187.407 345.388 187.376C343.711 187.367 342.034 187.363 340.357 187.365C310.825 187.387 284.886 179.115 263.479 158.264C261.137 155.64 258.95 152.98 256.838 150.173C255.37 148.257 253.854 146.608 252.09 144.96C251.553 145.627 251.015 146.295 250.461 146.983C249.739 147.877 249.017 148.772 248.273 149.693C247.21 151.011 247.21 151.011 246.125 152.356C245.361 153.292 244.596 154.229 243.808 155.194C242.997 156.207 242.185 157.22 241.349 158.264C225.89 175.729 202.569 184.872 179.62 186.919C177.229 186.919 174.837 186.919 172.373 186.919C172.373 177.801 172.373 168.682 172.373 159.288C176.313 158.686 176.313 158.686 180.332 158.072C198.074 155.087 214.134 147.743 225.039 133.159C233.457 120.705 237.335 108.492 238.049 93.6619C239.306 68.6254 247.64 47.5869 265.549 29.3156C266.159 28.6256 266.769 27.9357 267.397 27.2248C289.591 3.06856 322.545 1.52715 353.202 1.53508ZM282.373 51.3827C270.342 65.2857 265.224 82.759 266.37 100.822C268.176 119.17 277.95 134.494 291.994 146.115C309.829 159.093 328.74 159.746 350.01 159.685C352.457 159.689 354.904 159.694 357.351 159.701C363.961 159.715 370.57 159.71 377.18 159.7C381.316 159.695 385.452 159.696 389.589 159.698C390.623 159.699 390.623 159.699 391.677 159.7C393.078 159.701 394.478 159.702 395.879 159.703C408.976 159.712 422.073 159.702 435.17 159.685C446.379 159.671 457.588 159.674 468.797 159.688C481.851 159.704 494.905 159.711 507.959 159.701C509.354 159.7 510.749 159.699 512.144 159.698C512.83 159.698 513.517 159.697 514.224 159.697C519.032 159.694 523.84 159.699 528.648 159.706C535.134 159.715 541.619 159.709 548.105 159.691C550.476 159.687 552.847 159.688 555.218 159.695C570.466 159.735 585.341 159.759 599.172 152.508C599.863 152.155 600.554 151.802 601.267 151.438C607.546 148.095 612.622 143.916 617.548 138.82C618.202 138.193 618.856 137.566 619.53 136.921C631.563 124.633 635.689 108.246 635.583 91.6531C635.078 73.6798 627.398 59.2033 614.443 46.7134C595.861 29.5414 573.775 28.847 549.764 28.9346C547.354 28.9321 544.944 28.9283 542.535 28.9232C536.037 28.9137 529.539 28.9232 523.041 28.9369C516.911 28.9473 510.782 28.9448 504.652 28.9428C492.51 28.9396 480.368 28.9514 468.226 28.9715C456.473 28.991 444.72 28.9982 432.967 28.9925C420.129 28.9863 407.29 28.9865 394.452 28.9981C387.67 29.0042 380.888 29.008 374.106 29.0053C367.733 29.0034 361.36 29.0118 354.986 29.0279C352.654 29.0322 350.322 29.0331 347.99 29.0303C321.859 29.0031 301.453 32.2322 282.373 51.3827Z" fill="white" fill-opacity="0.99"/>
<path d="M180.644 629.77C182.384 629.766 184.123 629.76 185.863 629.754C190.554 629.741 195.245 629.74 199.936 629.742C203.87 629.744 207.803 629.739 211.736 629.734C221.026 629.722 230.315 629.722 239.605 629.728C249.148 629.734 258.692 629.722 268.235 629.7C276.464 629.682 284.693 629.676 292.922 629.679C297.822 629.681 302.721 629.678 307.62 629.664C312.232 629.651 316.845 629.653 321.458 629.666C323.137 629.669 324.816 629.666 326.495 629.658C355.248 629.522 378.897 638.196 399.814 658.067C414.744 673.317 424.454 694.56 425.284 715.821C426.113 736.19 430.969 754.064 445.913 768.666C458.44 780.025 473.26 785.888 490.216 785.934C491.096 785.945 491.976 785.955 492.882 785.966C495.756 785.997 498.629 786.015 501.503 786.032C503.509 786.051 505.515 786.071 507.521 786.092C512.775 786.144 518.029 786.185 523.283 786.223C528.655 786.264 534.027 786.316 539.398 786.368C549.919 786.466 560.44 786.552 570.96 786.632C570.96 795.75 570.96 804.869 570.96 814.263C559.269 814.356 547.577 814.431 535.885 814.475C530.454 814.497 525.023 814.525 519.592 814.572C514.336 814.617 509.08 814.641 503.824 814.652C501.834 814.659 499.844 814.674 497.854 814.696C469.589 815.001 446.259 807.752 424.984 788.678C419.927 783.61 415.26 778.404 411.526 772.304C410.985 772.986 410.445 773.668 409.888 774.371C392.634 795.727 372.326 810.348 344.232 814.263C341.698 814.358 339.161 814.401 336.625 814.407C335.882 814.41 335.139 814.413 334.373 814.416C331.893 814.425 329.414 814.427 326.935 814.428C325.152 814.433 323.369 814.438 321.587 814.444C316.75 814.457 311.913 814.464 307.076 814.468C304.049 814.471 301.022 814.475 297.995 814.48C288.509 814.494 279.024 814.504 269.538 814.508C258.616 814.512 247.695 814.53 236.773 814.56C228.314 814.582 219.855 814.593 211.395 814.594C206.352 814.595 201.308 814.601 196.264 814.619C191.512 814.636 186.76 814.638 182.008 814.629C180.275 814.629 178.541 814.633 176.808 814.643C148.627 814.799 125.253 805.332 104.95 785.928C87.7103 768.854 80.0409 745.918 79.7793 722.285C79.8801 696.308 89.6796 673.98 108.185 655.636C108.994 654.813 109.803 653.99 110.636 653.142C129.827 634.745 154.81 629.726 180.644 629.77ZM121.967 681.285C109.651 696.785 106.492 714.172 108.185 733.415C110.907 750.114 121.175 765.132 134.844 775.118C149.602 784.715 163.195 786.942 180.374 786.913C182.121 786.917 183.869 786.922 185.616 786.928C190.342 786.942 195.067 786.943 199.792 786.94C203.746 786.939 207.7 786.944 211.654 786.949C220.988 786.96 230.321 786.961 239.655 786.955C249.263 786.948 258.87 786.961 268.478 786.983C276.746 787.001 285.015 787.007 293.283 787.004C298.213 787.002 303.142 787.004 308.072 787.019C312.71 787.032 317.348 787.03 321.986 787.016C323.681 787.014 325.376 787.017 327.071 787.025C346.52 787.115 364.104 782.008 378.437 768.496C391.877 755.044 397.476 738.256 397.41 719.777C397.057 702.396 389.491 687.513 377.361 675.081C361.363 661.168 344.481 657.205 323.711 657.269C321.99 657.264 320.269 657.256 318.548 657.248C313.908 657.23 309.269 657.231 304.629 657.237C300.739 657.24 296.85 657.234 292.96 657.228C283.775 657.213 274.589 657.215 265.404 657.226C255.965 657.238 246.527 657.224 237.088 657.196C228.95 657.174 220.813 657.167 212.675 657.173C207.83 657.176 202.984 657.174 198.139 657.156C193.578 657.14 189.018 657.145 184.457 657.164C182.796 657.168 181.134 657.164 179.473 657.154C156.669 657.017 137.362 663.93 121.967 681.285Z" fill="white" fill-opacity="0.99"/>
<path d="M567.576 944.073C569.072 944.065 569.072 944.065 570.599 944.057C573.89 944.042 577.181 944.035 580.472 944.03C582.773 944.024 585.074 944.018 587.375 944.012C592.2 944.001 597.024 943.995 601.849 943.992C607.999 943.986 614.148 943.962 620.297 943.932C625.053 943.913 629.808 943.908 634.564 943.907C636.829 943.903 639.094 943.895 641.359 943.882C669.575 943.725 694.462 949.966 715.036 969.955C716.017 970.932 716.996 971.911 717.972 972.893C718.685 973.599 719.397 974.304 720.132 975.032C737.309 993.202 743.792 1017.33 743.11 1041.64C741.896 1067.04 730.012 1089.32 711.26 1106.3C694.466 1120.92 672.564 1128.59 650.312 1128.61C649.369 1128.62 648.425 1128.62 647.452 1128.63C644.345 1128.65 641.237 1128.65 638.129 1128.66C637.06 1128.66 635.991 1128.66 634.889 1128.67C629.225 1128.68 623.56 1128.69 617.896 1128.7C612.087 1128.7 606.278 1128.73 600.469 1128.76C595.966 1128.77 591.464 1128.78 586.961 1128.78C584.822 1128.78 582.683 1128.79 580.544 1128.81C551.773 1128.98 526.323 1122.76 504.702 1102.86C499.651 1097.79 494.98 1092.59 491.243 1086.49C488.31 1089.28 485.805 1092.17 483.349 1095.38C469.054 1113.14 447.787 1124.6 425.138 1128.03C399.566 1130.87 375.306 1125.16 354.585 1110.03C350.932 1107.13 347.547 1104.08 344.232 1100.82C343.447 1100.07 342.662 1099.31 341.854 1098.54C324.923 1081.28 318.35 1058.87 318.35 1035.32C327.574 1035.32 336.799 1035.32 346.302 1035.32C346.537 1037.75 346.772 1040.18 347.014 1042.68C348.506 1055.39 353.288 1065.87 360.797 1076.26C361.249 1076.91 361.701 1077.55 362.168 1078.22C370.834 1089.44 386.497 1097.22 400.324 1099.51C411.34 1100.59 421.646 1100.18 432.232 1096.72C433.111 1096.45 433.991 1096.18 434.897 1095.9C449.908 1090.66 462.217 1078.79 469.502 1065C473.666 1055.18 475.641 1046.33 476.277 1035.78C478.095 1007.39 487.923 984.046 509.879 964.706C526.115 951.445 546.614 944.098 567.576 944.073ZM519.734 994.132C507.819 1008.95 502.951 1025.83 504.702 1044.53C507.312 1059.98 514.167 1072.49 525.408 1083.42C526.003 1084.01 526.598 1084.59 527.212 1085.2C539.167 1096.14 555.015 1100.96 570.973 1100.98C572.351 1100.99 572.351 1100.99 573.756 1101C576.783 1101.01 579.811 1101.02 582.838 1101.03C583.878 1101.03 584.918 1101.03 585.989 1101.03C591.496 1101.05 597.002 1101.06 602.509 1101.06C608.166 1101.07 613.823 1101.09 619.481 1101.12C623.857 1101.14 628.233 1101.15 632.61 1101.15C634.693 1101.15 636.777 1101.16 638.861 1101.17C659.988 1101.3 678.24 1098.61 694.098 1083.61C707.404 1070.51 715.032 1055.23 715.319 1036.54C715.194 1018.17 708.067 1002.46 695.196 989.267C688.04 983.045 680.405 978.06 671.384 974.94C670.722 974.688 670.059 974.436 669.377 974.177C659.012 970.772 648.214 971.406 637.426 971.426C635.225 971.421 633.025 971.416 630.824 971.409C626.225 971.4 621.626 971.403 617.027 971.413C611.169 971.425 605.312 971.404 599.454 971.374C594.912 971.355 590.371 971.356 585.829 971.362C583.671 971.362 581.513 971.356 579.355 971.343C555.788 971.223 536.166 976.098 519.734 994.132Z" fill="white" fill-opacity="0.99"/>
<path d="M172.373 1179.62C184.065 1179.52 195.756 1179.45 207.448 1179.4C212.879 1179.38 218.31 1179.35 223.741 1179.31C228.997 1179.26 234.253 1179.24 239.509 1179.23C241.499 1179.22 243.489 1179.21 245.479 1179.18C263.816 1178.99 280.298 1181.13 296.608 1189.85C297.957 1190.56 297.957 1190.56 299.334 1191.29C321.396 1203.63 336.099 1223.37 343.196 1247.16C349.589 1270.86 346.299 1296.69 334.202 1318.1C321.358 1338.88 302.135 1354.11 278.377 1360.97C277.219 1361.24 276.06 1361.51 274.867 1361.78C274.182 1361.95 273.498 1362.12 272.793 1362.3C263.561 1364.3 254.321 1364.12 244.92 1364.11C241.803 1364.11 238.685 1364.12 235.568 1364.14C226.713 1364.19 217.858 1364.21 209.003 1364.22C203.566 1364.22 198.129 1364.25 192.692 1364.29C190.631 1364.3 188.569 1364.3 186.508 1364.29C183.622 1364.29 180.738 1364.3 177.852 1364.33C177.013 1364.32 176.174 1364.31 175.309 1364.3C167.175 1364.42 159.553 1367.29 153.738 1373.04C148.939 1379.91 147.683 1386.31 148.561 1394.53C150.781 1402.09 154.665 1406.76 161.308 1411.1C165.715 1413.4 165.715 1413.4 173.408 1415C173.408 1424.12 173.408 1433.24 173.408 1442.63C156.011 1441.2 142.415 1436.46 130.961 1423.19C121.065 1410.87 118.276 1396.66 119.573 1381.23C121.979 1367.39 128.935 1355.05 140.279 1346.43C151.552 1339.51 162.404 1335.87 175.716 1335.94C176.621 1335.93 177.527 1335.93 178.46 1335.92C180.41 1335.92 182.36 1335.92 184.311 1335.92C187.412 1335.92 190.514 1335.9 193.615 1335.89C202.428 1335.84 211.241 1335.81 220.054 1335.81C225.462 1335.8 230.87 1335.78 236.278 1335.74C238.322 1335.73 240.367 1335.73 242.411 1335.73C263.754 1335.79 282.339 1332.22 298.489 1317.23C310.356 1305.51 317.208 1288.79 317.573 1272.23C317.241 1254.16 310.403 1237.9 297.421 1225.21C284.893 1213.86 270.074 1207.99 253.117 1207.95C252.237 1207.94 251.358 1207.93 250.451 1207.91C247.577 1207.88 244.704 1207.87 241.83 1207.85C239.824 1207.83 237.818 1207.81 235.812 1207.79C230.558 1207.74 225.304 1207.7 220.05 1207.66C214.678 1207.62 209.307 1207.56 203.935 1207.51C193.414 1207.41 182.894 1207.33 172.373 1207.25C172.373 1198.13 172.373 1189.01 172.373 1179.62Z" fill="white" fill-opacity="0.99"/>
<path d="M150.635 962.339C170.035 978.416 183.667 998.67 186.87 1024.06C188.567 1053.32 181.973 1077.43 162.48 1099.76C146.105 1116.91 123.354 1127.88 99.3558 1128.66C72.9019 1129.07 49.457 1121.57 29.5059 1103.89C28.8493 1103.32 28.1927 1102.76 27.5162 1102.18C11.0305 1087.08 1.17774 1063.75 0.287266 1041.83C-0.443679 1012.93 9.03795 989.788 29.1177 968.735C61.192 937.76 115.352 935.425 150.635 962.339ZM42.7706 995.024C30.4377 1011.11 26.3026 1029.1 28.9195 1048.96C32.6359 1066.03 42.9586 1079.88 57.0827 1090.05C72.9278 1100.14 90.3583 1103.31 108.835 1099.73C126.764 1095.01 140.737 1084.46 150.635 1069.09C152.685 1065.43 154.337 1061.76 155.812 1057.83C156.141 1057.01 156.471 1056.19 156.81 1055.35C160.976 1043.17 160.841 1026.73 155.812 1014.85C155.555 1014.24 155.299 1013.63 155.035 1013C147.026 994.394 134.949 983.473 116.365 974.983C90.0437 965.621 60.7745 974.146 42.7706 995.024Z" fill="white" fill-opacity="0.99"/>
<path d="M648.607 826.544C670.846 826.449 693.084 826.376 715.323 826.332C725.651 826.311 735.978 826.282 746.305 826.235C755.314 826.194 764.322 826.168 773.331 826.159C778.095 826.154 782.858 826.141 787.621 826.111C792.119 826.083 796.616 826.075 801.114 826.081C802.751 826.08 804.388 826.072 806.025 826.056C822.728 825.902 837.713 828.958 852.56 836.778C853.437 837.228 854.313 837.678 855.217 838.142C876.386 849.797 891.113 869.117 898.501 891.722C900.362 898.713 900.995 905.778 901.457 912.974C902.094 921.945 904.059 931.219 911.123 937.487C918.252 942.911 925.483 943.523 934.214 943.636C935.647 943.666 935.647 943.666 937.108 943.696C940.135 943.757 943.162 943.804 946.189 943.852C948.251 943.891 950.313 943.931 952.375 943.972C957.409 944.071 962.443 944.153 967.477 944.235C967.477 953.354 967.477 962.472 967.477 971.867C961.512 971.915 955.547 971.955 949.582 971.98C947.558 971.99 945.534 972.004 943.51 972.022C914.798 972.268 914.798 972.268 902.642 965.727C901.567 965.181 901.567 965.181 900.47 964.624C897.628 963.156 895.216 961.84 892.936 959.586C892.372 960.502 891.807 961.418 891.226 962.361C877.185 984.767 857.784 1001.71 831.53 1008.45C823.401 1010.3 816.538 1010.76 808.042 1010.76C808.042 1001.64 808.042 992.52 808.042 983.125C810.818 982.745 813.594 982.365 816.454 981.973C834.348 979.153 850.086 970.912 861.069 956.352C871.685 939.621 875.645 921.776 871.195 902.276C865.982 884.893 855.83 871.323 839.859 862.274C827.608 855.824 815.454 854.443 801.869 854.525C800.184 854.516 798.498 854.505 796.813 854.492C792.294 854.464 787.776 854.466 783.257 854.474C778.513 854.477 773.77 854.452 769.027 854.429C760.07 854.391 751.113 854.378 742.156 854.375C731.948 854.37 721.74 854.337 711.532 854.301C690.557 854.227 669.582 854.191 648.607 854.176C648.607 845.058 648.607 835.939 648.607 826.544Z" fill="white" fill-opacity="0.99"/>
<path d="M563.971 444.496C576.114 454.804 582.535 467.031 584.418 482.682C584.749 488.675 584.707 494.681 584.702 500.681C584.701 503.709 584.715 506.735 584.732 509.762C584.78 518.361 584.806 526.961 584.813 535.56C584.818 540.842 584.843 546.123 584.88 551.405C584.89 553.401 584.893 555.397 584.887 557.393C584.834 577.526 588.229 594.184 602.766 609.296C603.934 610.452 603.934 610.452 605.124 611.631C605.785 612.295 606.445 612.96 607.126 613.645C618.378 624.19 634.358 629.024 649.642 629.54C668.132 628.895 684.411 621.828 697.265 608.56C709.068 595.754 712.968 581.434 714.865 564.554C724.09 564.554 733.314 564.554 742.818 564.554C742.818 590.919 733.094 613.652 714.517 632.506C695.816 650.035 671.352 658.338 645.873 657.903C623.144 657.089 602.322 648.076 585.454 633.122C584.797 632.557 584.14 631.993 583.464 631.411C568.717 617.903 557.322 595.702 556.368 575.832C556.327 573.453 556.317 571.076 556.319 568.697C556.315 567.796 556.311 566.895 556.308 565.966C556.3 564.016 556.295 562.066 556.291 560.116C556.283 557.022 556.267 553.927 556.248 550.833C556.194 542.037 556.144 533.24 556.128 524.444C556.118 519.055 556.087 513.667 556.044 508.278C556.031 506.234 556.026 504.189 556.028 502.145C556.541 485.123 556.541 485.123 549.342 470.221C543.881 464.953 538.206 462.602 530.713 461.766C525.441 461.962 520.809 464.133 516.089 466.308C515.347 466.606 514.605 466.904 513.841 467.211C511.444 468.659 510.931 469.901 509.877 472.448C509.524 473.174 509.17 473.899 508.806 474.647C508.455 475.399 508.104 476.151 507.742 476.925C507.388 477.672 507.035 478.419 506.67 479.188C505.442 482.197 505.442 482.197 504.701 487.799C495.476 487.799 486.252 487.799 476.748 487.799C476.748 471.989 481.786 459.688 492.815 448.182C512.521 430.206 542.491 428.376 563.971 444.496Z" fill="white" fill-opacity="0.99"/>
<path d="M714.868 250.371C724.092 250.371 733.317 250.371 742.821 250.371C742.83 253.442 742.83 253.442 742.839 256.576C742.898 275.894 742.973 295.213 743.065 314.531C743.111 324.462 743.152 334.394 743.179 344.325C743.203 352.986 743.238 361.646 743.285 370.307C743.31 374.889 743.329 379.47 743.336 384.052C743.342 388.374 743.363 392.695 743.394 397.017C743.403 398.594 743.407 400.171 743.406 401.748C743.389 422.375 748.517 440.048 763.526 455.051C777.417 467.087 794.4 473.075 812.767 472.449C831.228 470.659 846.96 462.191 859.012 448.295C867.404 437.494 871.846 425.453 873.013 411.949C873.267 410.022 873.267 410.022 874.303 407.975C883.185 407.975 892.068 407.975 901.22 407.975C901.22 423.502 901.22 423.502 899.538 429.914C899.353 430.643 899.169 431.372 898.979 432.124C892.809 455.294 877.839 475.717 856.843 487.897C834.69 500.158 807.916 504.479 783.074 498.008C758.319 490.68 737.689 474.365 725.221 451.981C718.656 438.94 714.732 424.578 714.743 409.991C714.742 409.304 714.741 408.616 714.741 407.908C714.739 405.625 714.745 403.342 714.75 401.059C714.75 399.415 714.75 397.77 714.75 396.126C714.749 391.675 714.756 387.225 714.763 382.774C714.769 378.118 714.77 373.462 714.771 368.806C714.774 359.995 714.783 351.184 714.793 342.373C714.805 332.34 714.81 322.306 714.816 312.273C714.826 291.639 714.845 271.005 714.868 250.371Z" fill="white" fill-opacity="0.99"/>
<path d="M609.654 237.643C610.605 237.652 611.555 237.66 612.535 237.669C626.829 238.02 638.388 243.542 648.865 253.122C660.083 264.917 663.606 278.311 663.453 294.095C663.454 295.969 663.454 295.969 663.455 297.881C663.453 301.27 663.437 304.658 663.416 308.047C663.396 311.602 663.394 315.157 663.391 318.713C663.381 325.429 663.356 332.144 663.324 338.86C663.29 346.513 663.273 354.165 663.257 361.818C663.225 377.545 663.168 393.272 663.101 408.999C653.876 408.999 644.652 408.999 635.148 408.999C635.144 405.27 635.139 401.542 635.135 397.7C635.117 385.364 635.071 373.028 635.011 360.692C634.975 353.214 634.949 345.737 634.945 338.26C634.942 331.739 634.921 325.218 634.878 318.697C634.856 315.247 634.843 311.798 634.852 308.349C634.857 304.487 634.83 300.628 634.795 296.767C634.804 295.636 634.813 294.506 634.822 293.341C634.712 285.916 633.308 280.057 628.936 273.91C623.027 268.469 616.314 265.869 608.23 265.723C601.377 266.767 594.44 269.204 590.177 274.861C585.513 282.013 584.708 287.951 585.454 296.425C587.209 303.322 590.862 307.914 596.842 311.776C601.576 314.157 604.956 314.989 610.301 315.869C610.301 324.988 610.301 334.106 610.301 343.501C594.842 343.501 582.247 338.537 570.834 328.19C559.484 316.014 555.907 301.91 556.183 285.835C556.76 271.957 563.635 259.646 573.762 250.216C584.504 241.66 595.933 237.484 609.654 237.643Z" fill="white" fill-opacity="0.99"/>
<path d="M94.7257 159.287C94.7257 168.406 94.7257 177.524 94.7257 186.919C91.2665 187.299 91.2665 187.299 87.7374 187.686C69.5676 189.984 53.8586 197.76 42.3787 211.992C31.7673 226.402 29.1956 241.132 29.1722 258.541C29.1626 260.186 29.152 261.831 29.1407 263.476C29.1125 267.918 29.0968 272.359 29.0833 276.801C29.0671 281.452 29.0393 286.103 29.0129 290.753C28.9645 299.55 28.9264 308.346 28.8921 317.142C28.8524 327.161 28.8013 337.18 28.7492 347.198C28.6424 367.798 28.5503 388.397 28.467 408.997C19.2426 408.997 10.0181 408.997 0.514133 408.997C0.442056 387.379 0.38672 365.761 0.353214 344.142C0.337239 334.103 0.315478 324.064 0.279828 314.025C0.248749 305.269 0.228805 296.513 0.221907 287.757C0.217879 283.127 0.208492 278.496 0.185747 273.865C0.164457 269.495 0.158204 265.124 0.162833 260.754C0.161988 259.161 0.155942 257.568 0.1439 255.976C-0.0452544 229.637 7.94913 205.476 26.7968 186.487C27.6896 185.617 28.5824 184.746 29.5023 183.849C30.1923 183.168 30.8822 182.487 31.5931 181.786C49.0353 165.669 71.359 159.287 94.7257 159.287Z" fill="white" fill-opacity="0.99"/>
<path d="M80.2344 407.975C89.4588 407.975 98.6833 407.975 108.187 407.975C108.422 410.402 108.657 412.83 108.899 415.331C110.889 432.285 118.778 447.063 131.999 458.122C146.45 468.923 163.189 473.705 181.204 471.97C198.056 469.421 214.328 461.403 224.597 447.688C233.242 435.448 236.962 422.701 238.634 407.975C247.858 407.975 257.083 407.975 266.587 407.975C266.587 433.874 257.152 456.16 238.634 474.496C237.849 475.284 237.065 476.071 236.256 476.883C217.76 494.42 194.31 500.622 169.315 500.513C159.722 500.313 151.399 499.199 142.352 495.988C141.116 495.554 139.88 495.12 138.607 494.672C114.938 485.482 97.7223 467.701 86.9314 445.361C81.6635 432.841 80.2344 421.632 80.2344 407.975Z" fill="white" fill-opacity="0.99"/>
<path d="M481.713 1188.26C493.821 1196.69 500.671 1207.79 504.307 1222.03C506.751 1238.16 503.247 1252.89 493.542 1266.04C485.374 1275.81 473.729 1282.31 461.221 1285.03C443.632 1286.49 429.108 1283.77 415.086 1272.7C405.511 1264.1 398.596 1251.86 397.154 1239.03C396.511 1222.44 400.34 1208.59 411.329 1195.87C429.774 1176.43 459.379 1173.92 481.713 1188.26ZM430.745 1216.21C426.296 1222.88 424.109 1229.38 425.305 1237.39C427.561 1245.61 432.167 1250.91 439.428 1255.29C445.742 1258.51 453.775 1258.5 460.586 1256.77C467.492 1253.72 471.965 1248.01 475.651 1241.66C477.669 1234.85 477.674 1228.09 474.781 1221.52C471.188 1215.23 466.585 1210.48 459.684 1207.89C448.703 1205.18 438.069 1207.31 430.745 1216.21Z" fill="white" fill-opacity="0.99"/>
<path d="M133.419 237.643C134.37 237.652 135.321 237.66 136.3 237.669C150.636 238.021 162.258 243.558 172.696 253.25C183.215 264.35 187.534 277.648 187.356 292.667C186.8 306.719 180.943 318.988 171.377 329.297C159.353 340.25 145.262 344.056 129.339 343.785C114.677 343.159 101.484 335.52 91.6194 325.08C81.1349 311.971 78.5785 297.347 80.2312 281.074C82.5508 268.157 89.5568 256.565 99.9018 248.325C110.497 241.125 120.558 237.494 133.419 237.643ZM115.184 272.023C109.863 277.529 107.876 283.383 107.602 290.924C108.014 299.605 110.509 304.2 116.855 310.113C123.057 315.189 128.283 316.425 136.262 316.253C143.006 315.385 148.583 312.229 153.155 307.298C158.719 300.022 159.999 293.114 158.913 284.144C156.472 276.256 150.64 270.598 143.384 266.746C132.9 263.411 123.713 265.046 115.184 272.023Z" fill="white" fill-opacity="0.99"/>
<path d="M643.726 1192.51C653.868 1200.7 659.959 1212.22 663.101 1224.65C663.101 1228.03 663.101 1231.4 663.101 1234.88C653.877 1234.88 644.653 1234.88 635.149 1234.88C634.124 1230.32 634.124 1230.32 633.078 1225.67C629.833 1218.39 624.871 1214.32 617.613 1210.96C609.255 1209.27 602.112 1210.07 594.861 1214.64C589.166 1218.95 586.045 1224.48 585.069 1231.52C584.907 1234.68 584.875 1237.81 584.889 1240.97C584.879 1242.16 584.868 1243.35 584.857 1244.57C584.827 1248.47 584.825 1252.38 584.824 1256.28C584.808 1259 584.791 1261.72 584.772 1264.43C584.73 1270.84 584.709 1277.24 584.695 1283.65C584.679 1290.94 584.639 1298.24 584.597 1305.53C584.512 1320.53 584.459 1335.53 584.419 1350.53C575.195 1350.53 565.97 1350.53 556.466 1350.53C556.373 1334.48 556.296 1318.43 556.252 1302.38C556.231 1294.93 556.202 1287.47 556.154 1280.02C556.113 1273.52 556.086 1267.02 556.077 1260.51C556.071 1257.08 556.057 1253.64 556.029 1250.2C555.998 1246.35 555.994 1242.5 555.996 1238.64C555.981 1237.52 555.967 1236.4 555.951 1235.25C556.031 1220.3 561.597 1206.87 571.996 1195.99C593.42 1178.63 620.588 1176.56 643.726 1192.51Z" fill="white" fill-opacity="0.99"/>
<path d="M39.8569 839.849C49.0813 839.849 58.3058 839.849 67.8098 839.849C68.8347 843.226 69.8596 846.603 70.9156 850.083C74.4544 856.476 79.3978 860.992 86.2614 863.781C91.011 865.107 95.9382 864.859 100.838 864.853C102.672 864.868 102.672 864.868 104.543 864.884C107.878 864.91 111.212 864.922 114.546 864.928C118.038 864.938 121.529 864.965 125.021 864.99C131.624 865.034 138.227 865.064 144.831 865.087C152.352 865.115 159.873 865.16 167.394 865.206C182.858 865.301 198.322 865.372 213.786 865.434C213.786 874.552 213.786 883.671 213.786 893.066C197.397 893.135 181.009 893.191 164.62 893.225C157.009 893.24 149.399 893.262 141.788 893.297C135.15 893.328 128.511 893.348 121.873 893.354C118.362 893.358 114.852 893.368 111.342 893.39C107.409 893.413 103.477 893.415 99.5449 893.414C97.8258 893.431 97.8258 893.431 96.072 893.447C79.518 893.383 66.2318 888.065 54.351 876.691C53.3687 877.578 52.3865 878.464 51.3745 879.378C39.6005 889.303 29.5424 891.882 13.9746 893.066C13.9746 883.947 13.9746 874.828 13.9746 865.434C19.6118 863.914 19.6118 863.914 25.3628 862.363C32.5088 858.226 36.0464 853.713 38.8216 845.989C39.1633 843.963 39.5049 841.936 39.8569 839.849Z" fill="white" fill-opacity="0.99"/>
<path d="M329.265 918.22C340.808 929.467 346.243 943.408 346.421 959.346C346.42 961.122 346.415 962.897 346.404 964.673C346.403 965.615 346.401 966.558 346.4 967.529C346.394 970.51 346.381 973.492 346.368 976.474C346.363 978.507 346.358 980.541 346.354 982.574C346.343 987.534 346.323 992.494 346.303 997.454C337.079 997.454 327.854 997.454 318.35 997.454C318.312 994.458 318.273 991.462 318.233 988.375C318.185 985.448 318.132 982.522 318.078 979.595C318.044 977.574 318.015 975.552 317.992 973.53C317.957 970.61 317.902 967.692 317.845 964.773C317.838 963.88 317.831 962.987 317.825 962.068C317.621 953.53 315.842 945.98 309.781 939.635C303.893 934.554 297.115 932.705 289.362 932.979C282.234 934.089 276.243 937.617 271.762 943.213C267.968 949.847 267 955.635 266.99 963.174C266.964 964.653 266.964 964.653 266.938 966.163C266.888 969.28 266.866 972.397 266.844 975.514C266.815 977.642 266.784 979.769 266.751 981.897C266.672 987.083 266.63 992.267 266.586 997.454C257.361 997.454 248.137 997.454 238.633 997.454C238.561 990.974 238.499 984.495 238.462 978.015C238.447 975.816 238.426 973.616 238.398 971.417C238.151 950.775 239.617 934.659 254.704 918.948C276.052 899.442 307.4 900.112 329.265 918.22Z" fill="white" fill-opacity="0.99"/>
<path d="M797.431 92.9585C806.006 98.8146 812.018 104.976 816.778 114.13C817.12 114.78 817.462 115.431 817.814 116.101C823.97 128.765 822.787 142.723 822.667 156.409C822.656 158.478 822.647 160.547 822.638 162.616C822.617 167.647 822.577 172.678 822.537 177.709C813.313 177.709 804.088 177.709 794.584 177.709C794.546 174.701 794.507 171.693 794.467 168.594C794.419 165.661 794.366 162.728 794.313 159.794C794.278 157.766 794.249 155.737 794.226 153.708C794.191 150.781 794.136 147.855 794.079 144.928C794.072 144.03 794.066 143.132 794.059 142.207C793.856 133.715 791.535 125.512 785.267 119.375C779.126 114.956 773.109 113.406 765.556 113.77C758.439 114.903 753.008 117.814 748.514 123.405C743.919 129.835 743.524 136.317 743.426 143.929C743.406 144.897 743.386 145.865 743.366 146.862C743.304 149.938 743.256 153.014 743.208 156.09C743.168 158.182 743.128 160.274 743.087 162.366C742.986 167.48 742.903 172.594 742.82 177.709C733.595 177.709 724.371 177.709 714.867 177.709C714.795 171.375 714.733 165.042 714.696 158.708C714.681 156.558 714.66 154.408 714.632 152.258C714.39 132.525 715.643 116.245 729.992 101.286C748.433 83.563 775.017 79.7807 797.431 92.9585Z" fill="white" fill-opacity="0.99"/>
<path d="M80.2333 14.9883C89.4577 14.9883 98.6822 14.9883 108.186 14.9883C109.211 20.0541 109.211 20.0541 110.257 25.2223C113.94 32.3994 118.006 36.9348 125.797 39.5879C130.551 40.8951 135.238 40.9336 140.147 40.9971C141.579 41.0268 141.579 41.0268 143.04 41.0571C146.067 41.1179 149.094 41.1656 152.121 41.2129C154.183 41.2521 156.245 41.292 158.307 41.3329C163.341 41.4324 168.375 41.5141 173.41 41.5967C173.41 50.7152 173.41 59.8337 173.41 69.2286C167.334 69.2996 161.261 69.3606 155.186 69.3972C153.126 69.4125 151.065 69.4333 149.005 69.4602C129.813 69.7035 113.919 68.246 97.8332 56.9477C97.561 57.6773 97.2887 58.4068 97.0082 59.1584C88.6913 78.5641 70.3237 92.6364 51.5039 101.274C45.9282 103.5 40.3312 105.112 34.4863 106.455C33.7493 106.627 33.0123 106.799 32.253 106.976C25.8665 108.312 20.8241 108.118 13.9746 108.118C13.9746 98.9993 13.9746 89.8808 13.9746 80.486C17.1775 80.106 17.1775 80.106 20.4452 79.7184C38.684 77.1039 54.9955 69.5042 66.273 54.6651C75.0916 42.2814 77.8948 30.0135 80.2333 14.9883Z" fill="white" fill-opacity="0.99"/>
<path d="M54.3504 1257.4C54.3504 1266.51 54.3504 1275.63 54.3504 1285.03C50.2506 1286.38 46.1509 1287.73 41.9269 1289.12C35.2841 1293.77 32.0126 1297.85 29.5034 1305.5C28.9277 1309.64 28.9189 1313.73 28.9382 1317.91C28.9275 1319.12 28.9168 1320.33 28.9058 1321.57C28.8754 1325.54 28.8738 1329.51 28.8725 1333.48C28.8593 1336.25 28.8399 1339.01 28.8206 1341.77C28.7788 1348.29 28.7576 1354.8 28.7441 1361.31C28.7276 1368.73 28.6878 1376.15 28.6461 1383.57C28.561 1398.82 28.508 1414.08 28.4681 1429.33C19.2437 1429.33 10.0192 1429.33 0.515245 1429.33C0.421501 1413.01 0.345327 1396.7 0.300682 1380.38C0.279395 1372.8 0.25041 1365.23 0.202837 1357.65C0.161358 1351.04 0.134796 1344.43 0.125608 1337.82C0.120244 1334.32 0.107777 1330.83 0.0773988 1327.33C0.0471192 1323.42 0.0432066 1319.5 0.0451171 1315.59C0.0302284 1314.45 0.0153398 1313.31 0 1312.13C0.0817111 1296.55 5.83752 1283.36 16.5501 1272.09C26.8767 1262.5 40.1908 1257.4 54.3504 1257.4Z" fill="white" fill-opacity="0.99"/>
<path d="M13.9746 473.472C29.5135 473.472 41.5564 477.521 53.0569 488.056C68.0261 504.059 68.4908 521.622 68.3497 542.314C68.3274 546.192 68.3495 550.069 68.3759 553.947C68.3732 556.45 68.3679 558.954 68.3598 561.457C68.3681 562.597 68.3765 563.737 68.3852 564.911C68.2066 579.957 62.921 592.653 52.6039 603.7C41.2292 614.292 29.3856 617.772 13.9746 617.772C13.9746 608.991 13.9746 600.21 13.9746 591.163C18.0744 589.812 22.1741 588.462 26.3981 587.07C32.9579 583.769 36.5266 578.525 38.8216 571.719C38.9323 570.051 38.9858 568.38 39.0049 566.709C39.0181 565.691 39.0314 564.672 39.0451 563.623C39.0528 562.523 39.0604 561.423 39.0683 560.289C39.0767 559.155 39.085 558.02 39.0936 556.851C39.1079 554.446 39.119 552.042 39.1272 549.637C39.145 545.974 39.1904 542.311 39.2361 538.648C39.2466 536.31 39.2554 533.972 39.2624 531.634C39.2805 530.544 39.2987 529.455 39.3173 528.332C39.2944 520.509 38.0031 515.086 32.6463 509.043C27.4268 504.739 27.4268 504.739 21.2216 502.127C18.8301 501.452 16.4386 500.777 13.9746 500.081C13.9746 491.3 13.9746 482.519 13.9746 473.472Z" fill="white" fill-opacity="0.99"/>
<path d="M648.607 873.621C701.563 873.621 754.518 873.621 809.078 873.621C809.078 882.74 809.078 891.858 809.078 901.253C756.122 901.253 703.167 901.253 648.607 901.253C648.607 892.134 648.607 883.016 648.607 873.621Z" fill="white" fill-opacity="0.99"/>
<path d="M476.748 1349.5C485.972 1349.5 495.197 1349.5 504.701 1349.5C505.107 1352.29 505.512 1355.08 505.93 1357.95C508.732 1375.28 516.679 1390.88 531.097 1401.57C543.562 1409.88 556.351 1412.77 570.96 1415C570.96 1424.12 570.96 1433.24 570.96 1442.63C543.646 1441.68 519.122 1432.38 500.125 1412.44C484.487 1394.9 476.748 1372.68 476.748 1349.5Z" fill="white" fill-opacity="0.99"/>
<path d="M397.035 1349.5C406.26 1349.5 415.484 1349.5 424.988 1349.5C425.394 1352.1 425.799 1354.7 426.217 1357.37C428.387 1369.96 432.485 1380.35 440.517 1390.44C440.97 1391.07 441.422 1391.69 441.888 1392.34C453.76 1407.74 472.96 1412.21 491.247 1415C491.247 1424.12 491.247 1433.24 491.247 1442.63C475.594 1442.09 461.846 1439.67 447.764 1432.4C446.766 1431.9 445.768 1431.4 444.739 1430.88C436.277 1426.34 429.678 1420.65 422.917 1413.98C422.149 1413.23 421.38 1412.48 420.588 1411.71C404.258 1394.78 398.11 1372.24 397.035 1349.5Z" fill="white" fill-opacity="0.99"/>
<path d="M397.034 407.975C406.258 407.975 415.483 407.975 424.987 407.975C424.987 423.523 424.987 423.523 423.304 429.978C423.121 430.709 422.938 431.439 422.75 432.191C420.889 439.196 418.078 445.592 414.634 451.981C414.179 452.848 413.724 453.715 413.255 454.608C401.325 475.78 381.39 490.699 358.016 497.459C355.845 498.021 353.667 498.558 351.481 499.058C350.232 499.359 350.232 499.359 348.958 499.665C343.314 500.55 337.504 500.134 331.811 500.081C331.811 491.3 331.811 482.52 331.811 473.473C334.8 472.903 337.789 472.333 340.869 471.746C360.067 467.832 375.826 459.253 386.81 442.835C393.471 431.726 395.844 420.913 397.034 407.975Z" fill="white" fill-opacity="0.99"/>
<path d="M397.034 486.777C406.258 486.777 415.483 486.777 424.987 486.777C424.987 513.499 415.336 534.638 396.904 553.874C379.255 570.959 356.252 578.883 331.811 578.883C331.811 569.765 331.811 560.646 331.811 551.252C334.095 551.019 336.38 550.787 338.734 550.548C355.66 548.485 371.442 540.421 382.443 527.43C391.933 514.736 395.464 502.294 397.034 486.777Z" fill="white" fill-opacity="0.99"/>
<path d="M675.525 1270.7C684.749 1270.7 693.974 1270.7 703.478 1270.7C702.042 1287.73 697.763 1298.49 686.913 1311.64C687.439 1312.15 687.965 1312.66 688.507 1313.18C698.672 1323.67 703.478 1336.08 703.478 1350.53C694.253 1350.53 685.029 1350.53 675.525 1350.53C673.988 1345.46 673.988 1345.46 672.419 1340.29C669.335 1333.56 665.333 1329.97 658.608 1326.86C655.174 1325.66 655.174 1325.66 648.607 1324.94C648.607 1315.82 648.607 1306.7 648.607 1297.31C650.657 1296.78 652.707 1296.25 654.819 1295.71C661.317 1293.7 666.223 1291.54 670.349 1286.05C672.778 1281.1 674.178 1276.03 675.525 1270.7Z" fill="white" fill-opacity="0.99"/>
<path d="M734.535 1270.7C743.759 1270.7 752.984 1270.7 762.487 1270.7C762.487 1285.12 759.137 1297.23 748.802 1307.86C748.194 1308.43 747.585 1309 746.958 1309.59C748.459 1312.81 750.309 1315.46 752.458 1318.29C759.864 1328.61 762.487 1337.99 762.487 1350.53C753.263 1350.53 744.039 1350.53 734.535 1350.53C733.51 1346.47 732.485 1342.42 731.429 1338.25C726.896 1331.79 722.497 1328.22 714.864 1325.96C712.814 1325.63 710.764 1325.29 708.652 1324.94C708.652 1315.82 708.652 1306.7 708.652 1297.31C714.29 1295.79 714.29 1295.79 720.041 1294.24C727.147 1290.13 730.823 1285.6 733.499 1277.86C733.841 1275.5 734.183 1273.14 734.535 1270.7Z" fill="white" fill-opacity="0.99"/>
<path d="M0.515625 682.245C9.74007 682.245 18.9645 682.245 28.4685 682.245C28.4685 708.587 28.4685 734.93 28.4685 762.07C19.244 762.07 10.0196 762.07 0.515625 762.07C0.515625 735.728 0.515625 709.386 0.515625 682.245Z" fill="white" fill-opacity="0.99"/>
<path d="M212.75 1100.82C239.057 1100.82 265.364 1100.82 292.467 1100.82C292.467 1109.94 292.467 1119.06 292.467 1128.45C266.161 1128.45 239.854 1128.45 212.75 1128.45C212.75 1119.33 212.75 1110.21 212.75 1100.82Z" fill="white" fill-opacity="0.99"/>
<path d="M530.583 668.942C530.583 678.061 530.583 687.179 530.583 696.574C525.459 698.094 525.459 698.094 520.23 699.644C512.796 703.666 508.568 709.205 505.736 717.042C505.395 719.069 505.053 721.095 504.701 723.183C495.476 723.183 486.252 723.183 476.748 723.183C476.748 707.373 481.786 695.071 492.815 683.566C503.383 673.925 516.263 668.942 530.583 668.942Z" fill="white" fill-opacity="0.99"/>
<path d="M54.3508 1179.62C54.3508 1188.74 54.3508 1197.86 54.3508 1207.25C51.276 1207.93 48.2011 1208.6 45.0332 1209.3C38.2977 1212.28 34.1122 1216.51 30.8626 1223.05C29.2486 1227.03 29.2486 1227.03 28.4685 1232.84C19.244 1232.84 10.0196 1232.84 0.515625 1232.84C0.515625 1217.63 5.16302 1205.18 15.774 1194.01C26.969 1183.9 39.4473 1179.62 54.3508 1179.62Z" fill="white" fill-opacity="0.99"/>
<path d="M516.091 604.467C525.316 604.467 534.54 604.467 544.044 604.467C544.044 619.787 539.267 632.131 528.515 643.357C516.279 653.27 506.35 656.457 490.209 657.684C490.209 648.566 490.209 639.447 490.209 630.052C495.846 628.533 495.846 628.533 501.597 626.982C508.743 622.845 512.281 618.331 515.056 610.608C515.398 608.581 515.739 606.555 516.091 604.467Z" fill="white" fill-opacity="0.99"/>
<path d="M530.583 865.437C530.583 874.555 530.583 883.674 530.583 893.068C526.825 894.082 523.067 895.095 519.195 896.139C509.347 902.034 507.457 907.756 504.701 918.653C495.476 918.653 486.252 918.653 476.748 918.653C478.066 901.712 482.651 889.332 495.197 877.561C505.499 868.929 517.182 865.437 530.583 865.437Z" fill="white" fill-opacity="0.99"/>
<path d="M141.53 1255.03C146.908 1257.82 149.788 1262.05 151.669 1267.63C152.106 1273.25 151.259 1277 148.563 1281.96C145.036 1285.98 142.029 1288.76 136.604 1289.47C129.948 1289.56 125.927 1289.11 120.61 1285.03C116.737 1280.09 115.048 1276.18 115.142 1269.88C115.834 1264.55 118.368 1260.55 122.292 1256.95C127.951 1253.27 135.046 1253.04 141.53 1255.03Z" fill="white" fill-opacity="0.99"/>
<path d="M278.231 274.037C283.564 277.632 287.074 281.93 288.325 288.237C288.415 294.409 287.312 298.805 283.149 303.588C278.337 307.68 273.857 308.946 267.619 308.705C261.555 307.668 258.093 304.896 254.294 300.23C251.421 295.906 251.512 291.165 252.09 286.19C253.951 280.199 256.772 276.891 262.443 273.909C267.792 272.147 272.906 272.215 278.231 274.037Z" fill="white" fill-opacity="0.99"/>
<path d="M420.003 862.875C424.621 865.459 427.312 868.692 429.126 873.62C430.17 879.431 429.883 884.324 426.861 889.483C424.101 893.252 421.251 895.237 416.832 896.839C409.831 897.857 404.927 896.958 399.103 893.065C393.782 887.401 393.563 883.45 393.639 875.879C394.011 871.633 395.061 869.506 398.067 866.457C404.959 861.312 411.877 859.422 420.003 862.875Z" fill="white" fill-opacity="0.99"/>
<path d="M183.05 549.971C187.457 553.618 190.564 556.92 191.292 562.712C191.569 569.418 190.452 573.853 185.833 578.882C181.289 582.917 176.662 583.578 170.675 583.3C165.512 582.615 162.764 580.656 159.174 577.027C155.273 571.564 154.233 567.26 155.182 560.713C156.546 555.711 159.471 552.346 163.639 549.331C170.25 546.315 176.615 546.61 183.05 549.971Z" fill="white" fill-opacity="0.99"/>
<path d="M399.105 272.886C403.818 274.851 407.931 277.628 410.493 282.096C412.313 287.493 412.685 293.514 410.554 298.874C408.122 302.935 405.738 305.977 401.175 307.681C394.514 309.106 389.62 309.15 383.575 305.634C379.496 302.14 376.652 299.172 376.017 293.777C375.993 288.123 376.015 283.804 379.434 279.026C385.534 273.46 390.879 271.679 399.105 272.886Z" fill="white" fill-opacity="0.99"/>
<path d="M340.419 274.036C344.329 276.733 347.255 279.877 349.413 284.142C350.123 291.723 350.139 297.509 345.272 303.587C340.318 308.017 335.22 308.939 328.707 308.704C322.338 307.025 318.98 303.607 315.248 298.47C312.985 293.997 313.457 287.731 314.848 283.011C319.896 273.052 330.284 270.634 340.419 274.036Z" fill="white" fill-opacity="0.99"/>
<path d="M657.194 1411.8C662.063 1414.55 665.61 1417.79 667.243 1423.19C668.021 1428.69 668.003 1432.97 665.431 1437.96C664.663 1438.83 663.894 1439.7 663.102 1440.59C662.483 1441.35 661.864 1442.11 661.226 1442.89C656.95 1446.27 652.403 1446.97 647.055 1446.66C640.821 1445.76 636.891 1442.86 633.143 1437.96C631.098 1431.42 630.752 1424.81 633.79 1418.58C640.25 1411.68 647.795 1408.27 657.194 1411.8Z" fill="white" fill-opacity="0.99"/>
<path d="M716.937 704.76C721.989 706.437 725.392 709.622 728.325 713.971C730.188 719.496 730.086 725.162 728.195 730.665C725.467 734.531 722.286 737.423 717.972 739.556C710.303 740.258 704.45 740.274 698.301 735.462C694.113 730.778 692.883 726.245 693.125 720.111C694.182 714.07 697.006 710.679 701.799 706.939C706.421 703.758 711.491 704.225 716.937 704.76Z" fill="white" fill-opacity="0.99"/>
<path d="M418.845 940.879C423.938 943.582 427.302 947.017 429.125 952.425C429.678 958.533 429.677 963.617 426.019 968.799C421.469 973.214 418.222 975.109 411.849 975.259C405.866 975.188 402.722 974.585 398.067 970.846C393.722 965.561 393.278 961.017 393.525 954.276C394.261 948.989 396.841 946.354 400.719 942.894C405.938 939.323 412.85 938.822 418.845 940.879Z" fill="white" fill-opacity="0.99"/>
<path d="M221.246 1254.99C225.02 1256.89 227.773 1259.59 229.666 1263.34C231.534 1269.47 231.405 1275.7 228.602 1281.45C221.63 1288.9 221.63 1288.9 216.486 1289.33C206.239 1289.5 206.239 1289.5 201.361 1286.05C196.978 1281.73 195.005 1278.05 194.891 1271.92C194.968 1266.62 195.816 1262.83 199.772 1259C206.101 1253.61 213.127 1252.63 221.246 1254.99Z" fill="white" fill-opacity="0.99"/>
<path d="M654.819 704.761C660.295 706.566 662.895 709.481 666.208 713.972C668.214 719.922 668.299 726.172 665.496 731.817C661.978 735.671 658.559 739.313 653.153 739.801C642.242 740.056 642.242 740.056 637.219 735.463C632.218 729.851 631.68 726.452 631.752 719.073C632.271 713.623 634.894 711.002 638.902 707.512C643.993 703.936 648.716 704.3 654.819 704.761Z" fill="white" fill-opacity="0.99"/>
<path d="M596.132 705.912C600.042 708.609 602.968 711.753 605.126 716.018C605.651 721.703 605.915 726.68 603.379 731.881C596.423 739.314 596.423 739.314 591.036 739.8C580.125 740.055 580.125 740.055 575.102 735.463C570.101 729.85 569.563 726.451 569.635 719.072C570.152 713.646 572.774 711.031 576.72 707.511C582.479 703.57 589.662 703.74 596.132 705.912Z" fill="white" fill-opacity="0.99"/>
<path d="M655.854 469.379C660.491 471.589 663.29 474.424 666.207 478.59C668.071 484.115 667.968 489.781 666.078 495.284C663.35 499.149 660.169 502.042 655.854 504.175C650.103 504.694 645.068 504.955 639.807 502.448C632.288 495.572 632.288 495.572 631.796 490.247C631.538 479.461 631.538 479.461 636.184 474.496C642.565 468.939 647.472 468.598 655.854 469.379Z" fill="white" fill-opacity="0.99"/>
</mask>
<g mask="url(#mask1_270_519)">
<rect y="-1.93555" width="789" height="1445" fill="white" fill-opacity="0.03"/>
</g>
</g>
</svg>
