<svg width="65" height="29" viewBox="0 0 65 29" fill="none" xmlns="http://www.w3.org/2000/svg">
<path d="M0 28.2878V21.9545C3.59155 21.9545 6.55847 19.0583 6.55847 15.4668H12.9608C12.9608 22.5724 7.14405 28.2878 0 28.2878Z" fill="white"/>
<path d="M64.2947 14.5388C64.2947 13.6507 64.2166 12.801 64.0604 11.9901C64.0604 11.9515 64.0604 11.9515 64.0604 11.9129C63.9823 11.5653 63.9043 11.2563 63.8262 10.9473C63.7871 10.8315 63.7871 10.7158 63.7481 10.5999C63.67 10.3295 63.5919 10.0978 63.4748 9.86608C63.3967 9.67298 63.3577 9.47987 63.2797 9.32553C63.2016 9.13242 63.1235 8.97791 63.0455 8.82344C62.9283 8.59174 62.8112 8.32142 62.6941 8.0897C62.655 7.97385 62.5769 7.89663 62.5379 7.78078C62.3817 7.47183 62.1865 7.2015 61.9913 6.89257L61.9523 6.85395C61.4839 6.15884 60.9373 5.46372 60.2737 4.84584C58.3218 2.91497 55.9014 1.64059 53.2468 1.09994C53.2468 1.09994 53.2468 1.09994 53.2078 1.09994C52.8173 1.02272 52.4269 0.984094 52.0365 0.906865C51.9584 0.906865 51.9194 0.868244 51.8414 0.868244C51.3729 0.829623 50.9044 0.791016 50.4359 0.791016C49.9675 0.791016 49.499 0.829623 49.0305 0.868244C48.9524 0.868244 48.9135 0.906865 48.8354 0.906865C48.445 0.945473 48.0546 1.02272 47.6642 1.09994C47.6642 1.09994 47.6642 1.09994 47.6251 1.09994C44.9705 1.64059 42.9016 2.91497 39.5832 6.15884L25.7637 19.8294C22.8358 22.7257 18.073 22.7257 15.1451 19.8294C12.2172 16.9331 12.2172 12.2218 15.1451 9.32553C16.5505 7.93525 18.4634 7.16289 20.4543 7.16289C22.4453 7.16289 24.3583 7.93525 25.7637 9.32553L30.292 4.84584C27.6764 2.25847 24.1631 0.829623 20.4543 0.829623C16.7457 0.829623 13.2322 2.25847 10.6166 4.84584C5.19029 10.2137 5.19029 18.9412 10.6166 24.309C13.3103 26.9736 16.9019 28.3252 20.4543 28.3252C24.0069 28.3252 27.5593 26.9736 30.292 24.309L36.9677 17.7441C37.5922 20.2542 38.8806 22.494 40.6372 24.2704C42.5892 26.2013 45.0096 27.4757 47.6642 28.0163C48.0546 28.0935 48.445 28.1707 48.8745 28.2094C48.9526 28.2094 48.9915 28.248 49.0696 28.248C49.5381 28.2866 50.0066 28.3252 50.4749 28.3252C54.1837 28.3252 57.6971 26.8964 60.3128 24.309C62.9283 21.6058 64.2947 18.0529 64.2947 14.5388ZM55.7062 19.7908C53.9104 21.5672 51.412 22.2622 49.0696 21.8376C49.0305 21.8376 48.9915 21.8376 48.9135 21.7989C48.7574 21.7603 48.6012 21.7217 48.445 21.6831C48.3669 21.6444 48.2888 21.6444 48.2108 21.6058C48.0936 21.5672 47.9765 21.5286 47.8594 21.49C47.7423 21.4513 47.6251 21.4127 47.5081 21.3741C47.4301 21.3355 47.352 21.2969 47.2739 21.2582C47.1177 21.181 46.9615 21.1424 46.8444 21.0651C46.8054 21.0265 46.7663 21.0265 46.7273 20.9879C44.4631 19.7135 42.9016 17.2807 42.9016 14.5002C42.9016 10.9087 45.4781 7.93523 48.8745 7.24012C48.8745 7.24012 48.8745 7.24012 48.9135 7.24012C49.1086 7.2015 49.3429 7.16289 49.5381 7.12427C49.5771 7.12427 49.6161 7.12427 49.6552 7.12427C49.8894 7.08565 50.1627 7.08565 50.4359 7.08565C50.7092 7.08565 50.9434 7.08565 51.2167 7.12427C51.2558 7.12427 51.2948 7.12427 51.3339 7.12427C51.5681 7.16289 51.7633 7.16289 51.9584 7.24012C51.9584 7.24012 51.9584 7.24012 51.9974 7.24012C53.9494 7.62629 55.6281 8.78482 56.6821 10.3682C56.7992 10.5226 56.8773 10.6771 56.9945 10.8702C57.0335 10.9087 57.0725 10.9473 57.0725 11.0246C57.1506 11.1404 57.1897 11.2949 57.2677 11.4494C57.3068 11.5267 57.3458 11.6425 57.3849 11.7198C57.4239 11.8356 57.463 11.9129 57.502 12.0287C57.541 12.1446 57.619 12.2991 57.658 12.4148C57.6971 12.492 57.6971 12.5693 57.6971 12.6079C57.7361 12.7624 57.7752 12.9555 57.8142 13.11C57.8142 13.1486 57.8142 13.1486 57.8142 13.1872C58.2046 15.5042 57.541 18.0143 55.7062 19.7908Z" fill="white"/>
</svg>
