<svg width="174" height="46" viewBox="0 0 174 46" fill="none" xmlns="http://www.w3.org/2000/svg">
<path d="M152.329 10.4263C151.47 8.88165 150.26 7.68451 148.699 6.83492C147.137 5.98534 145.38 5.56055 143.351 5.56055C141.399 5.56055 139.72 5.98534 138.276 6.83492C137.144 7.49141 136.285 8.37962 135.66 9.46091V6.13981H129.453V33.0948H136.051V17.3002C136.051 16.1031 136.285 15.0991 136.753 14.2108C137.222 13.3613 137.885 12.7048 138.705 12.2414C139.525 11.778 140.501 11.5463 141.555 11.5463C142.609 11.5463 143.585 11.778 144.406 12.2414C145.225 12.7048 145.889 13.3613 146.356 14.2108C146.825 15.0605 147.06 16.1031 147.06 17.3002V33.0948H153.618V15.7555C153.618 13.7474 153.189 11.971 152.329 10.4263Z" fill="white"/>
<path d="M88.3091 6.13981V9.30644C87.4501 8.26377 86.4352 7.45279 85.3031 6.83492C83.7806 5.98534 81.9848 5.56055 79.9547 5.56055C77.4563 5.56055 75.2312 6.13981 73.2401 7.25971C71.2882 8.41824 69.7267 9.96293 68.5555 11.9324C67.4234 13.9019 66.8379 16.1804 66.8379 18.7291C66.8379 21.2392 67.4234 23.5177 68.5555 25.5257C69.6877 27.5339 71.2882 29.1172 73.2792 30.2757C75.2702 31.4342 77.5344 32.0135 80.0328 32.0135C82.0629 32.0135 83.8587 31.5887 85.4202 30.7778C86.3961 30.2757 87.2159 29.6192 87.9577 28.7696V31.7432C87.9577 32.0522 87.9577 32.361 87.9187 32.6313C87.7234 34.3305 87.0597 35.4118 85.8495 36.6089C82.9217 39.5052 78.159 39.5052 75.2312 36.6089L70.7027 41.0886C73.3963 43.7531 76.9878 45.1047 80.5404 45.1047C84.0929 45.1047 87.6454 43.7531 90.378 41.0886C92.6033 38.8874 94.1258 36.107 94.4771 32.9789C94.5161 32.5541 94.5552 32.168 94.5552 31.7046V6.10119H88.3091V6.13981ZM87.0597 22.5522C86.4742 23.6336 85.6153 24.4831 84.6003 25.101C83.5854 25.7188 82.3362 26.0278 80.9308 26.0278C79.5254 26.0278 78.2762 25.7188 77.183 25.101C76.0899 24.4831 75.2312 23.6336 74.6455 22.5136C74.021 21.4323 73.7086 20.1966 73.7086 18.8063C73.7086 17.4161 74.021 16.1804 74.6455 15.0991C75.2702 14.0178 76.129 13.1682 77.222 12.5117C78.3152 11.8938 79.5644 11.5849 80.9308 11.5849C82.2971 11.5849 83.5073 11.8938 84.5613 12.5117C85.6153 13.1296 86.4352 13.9792 87.0597 15.0991C87.6844 16.1804 87.9967 17.4161 87.9967 18.8063C87.9577 20.1966 87.6454 21.4709 87.0597 22.5522Z" fill="white"/>
<path d="M0 33.2878V26.9545C3.59155 26.9545 6.55847 24.0583 6.55847 20.4668H12.9608C12.9608 27.5724 7.14405 33.2878 0 33.2878Z" fill="white"/>
<path d="M64.2947 19.5388C64.2947 18.6507 64.2166 17.801 64.0604 16.9901C64.0604 16.9515 64.0604 16.9515 64.0604 16.9129C63.9823 16.5653 63.9043 16.2563 63.8262 15.9473C63.7871 15.8315 63.7871 15.7158 63.7481 15.5999C63.67 15.3295 63.5919 15.0978 63.4748 14.8661C63.3967 14.673 63.3577 14.4799 63.2797 14.3255C63.2016 14.1324 63.1235 13.9779 63.0455 13.8234C62.9283 13.5917 62.8112 13.3214 62.6941 13.0897C62.655 12.9739 62.5769 12.8966 62.5379 12.7808C62.3817 12.4718 62.1865 12.2015 61.9913 11.8926L61.9523 11.8539C61.4839 11.1588 60.9373 10.4637 60.2737 9.84584C58.3218 7.91497 55.9014 6.64059 53.2468 6.09994C53.2468 6.09994 53.2468 6.09994 53.2078 6.09994C52.8173 6.02272 52.4269 5.98409 52.0365 5.90687C51.9584 5.90687 51.9194 5.86824 51.8414 5.86824C51.3729 5.82962 50.9044 5.79102 50.4359 5.79102C49.9675 5.79102 49.499 5.82962 49.0305 5.86824C48.9524 5.86824 48.9135 5.90687 48.8354 5.90687C48.445 5.94547 48.0546 6.02272 47.6642 6.09994C47.6642 6.09994 47.6642 6.09994 47.6251 6.09994C44.9705 6.64059 42.9016 7.91497 39.5832 11.1588L25.7637 24.8294C22.8358 27.7257 18.073 27.7257 15.1451 24.8294C12.2172 21.9331 12.2172 17.2218 15.1451 14.3255C16.5505 12.9352 18.4634 12.1629 20.4543 12.1629C22.4453 12.1629 24.3583 12.9352 25.7637 14.3255L30.292 9.84584C27.6764 7.25847 24.1631 5.82962 20.4543 5.82962C16.7457 5.82962 13.2322 7.25847 10.6166 9.84584C5.19029 15.2137 5.19029 23.9412 10.6166 29.309C13.3103 31.9736 16.9019 33.3252 20.4543 33.3252C24.0069 33.3252 27.5593 31.9736 30.292 29.309L36.9677 22.7441C37.5922 25.2542 38.8806 27.494 40.6372 29.2704C42.5892 31.2013 45.0096 32.4757 47.6642 33.0163C48.0546 33.0935 48.445 33.1707 48.8745 33.2094C48.9526 33.2094 48.9915 33.248 49.0696 33.248C49.5381 33.2866 50.0066 33.3252 50.4749 33.3252C54.1837 33.3252 57.6971 31.8964 60.3128 29.309C62.9283 26.6058 64.2947 23.0529 64.2947 19.5388ZM55.7062 24.7908C53.9104 26.5672 51.412 27.2622 49.0696 26.8376C49.0305 26.8376 48.9915 26.8376 48.9135 26.7989C48.7574 26.7603 48.6012 26.7217 48.445 26.6831C48.3669 26.6444 48.2888 26.6444 48.2108 26.6058C48.0936 26.5672 47.9765 26.5286 47.8594 26.49C47.7423 26.4513 47.6251 26.4127 47.5081 26.3741C47.4301 26.3355 47.352 26.2969 47.2739 26.2582C47.1177 26.181 46.9615 26.1424 46.8444 26.0651C46.8054 26.0265 46.7663 26.0265 46.7273 25.9879C44.4631 24.7135 42.9016 22.2807 42.9016 19.5002C42.9016 15.9087 45.4781 12.9352 48.8745 12.2401C48.8745 12.2401 48.8745 12.2401 48.9135 12.2401C49.1086 12.2015 49.3429 12.1629 49.5381 12.1243C49.5771 12.1243 49.6161 12.1243 49.6552 12.1243C49.8894 12.0856 50.1627 12.0856 50.4359 12.0856C50.7092 12.0856 50.9434 12.0856 51.2167 12.1243C51.2558 12.1243 51.2948 12.1243 51.3339 12.1243C51.5681 12.1629 51.7633 12.1629 51.9584 12.2401C51.9584 12.2401 51.9584 12.2401 51.9974 12.2401C53.9494 12.6263 55.6281 13.7848 56.6821 15.3682C56.7992 15.5226 56.8773 15.6771 56.9945 15.8702C57.0335 15.9087 57.0725 15.9473 57.0725 16.0246C57.1506 16.1404 57.1897 16.2949 57.2677 16.4494C57.3068 16.5267 57.3458 16.6425 57.3849 16.7198C57.4239 16.8356 57.463 16.9129 57.502 17.0287C57.541 17.1446 57.619 17.2991 57.658 17.4148C57.6971 17.492 57.6971 17.5693 57.6971 17.6079C57.7361 17.7624 57.7752 17.9555 57.8142 18.11C57.8142 18.1486 57.8142 18.1486 57.8142 18.1872C58.2046 20.5042 57.541 23.0143 55.7062 24.7908Z" fill="white"/>
<path d="M124.488 13.6707C123.902 12.0873 123.005 10.6971 121.872 9.49996C120.74 8.26421 119.374 7.33738 117.734 6.64227C116.134 5.94716 114.221 5.59961 112.113 5.59961C109.536 5.59961 107.233 6.21748 105.203 7.41461C103.173 8.65038 101.533 10.3109 100.362 12.3963C99.152 14.4816 98.5664 16.876 98.5664 19.6178C98.5664 20.9694 98.7226 22.2437 99.0349 23.4409C99.6204 25.951 100.87 28.2295 102.744 30.083C105.437 32.7476 109.029 34.0992 112.581 34.0992C116.134 34.0992 119.686 32.7476 122.419 30.083L117.891 25.6034C114.963 28.4997 110.2 28.4997 107.272 25.6034C106.14 24.4835 105.437 23.0933 105.203 21.5486H125.074C125.191 21.1625 125.308 20.699 125.347 20.2356C125.386 19.7723 125.425 19.2702 125.425 18.7681C125.386 16.9146 125.074 15.2154 124.488 13.6707ZM105.554 16.4897C105.671 15.9104 105.828 15.4085 106.023 14.9064C106.569 13.632 107.389 12.628 108.443 11.9329C109.497 11.2378 110.746 10.8902 112.113 10.8902C113.557 10.8902 114.767 11.2378 115.782 11.9329C116.797 12.628 117.539 13.5548 117.969 14.7519C118.164 15.2926 118.281 15.8718 118.32 16.4897H105.554Z" fill="white"/>
<path d="M167.479 20.6216V11.9328H174V6.14018H167.479V0H161.039V2.08534C161.039 3.39833 160.687 4.40239 159.946 5.0975C159.243 5.79261 158.189 6.14018 156.861 6.14018H156.354V11.9328H160.999V20.5059C160.999 27.5729 166.817 33.2883 173.96 33.2883V26.955C170.447 26.9936 167.519 24.1359 167.479 20.6216Z" fill="white"/>
</svg>
