<svg width="693" height="357" viewBox="0 0 693 357" fill="none" xmlns="http://www.w3.org/2000/svg">
<path d="M196.89 93.8239H223.155C225.702 93.8239 227.768 91.7587 227.768 89.2111V79.3627C227.768 76.8151 225.702 74.7499 223.155 74.7499H196.89C194.343 74.7499 192.277 76.8151 192.277 79.3627V89.2111C192.277 91.7587 194.343 93.8239 196.89 93.8239Z" fill="#01B2FF"/>
<path d="M214.009 93.8244L217.908 97.7238L221.808 93.8245L217.908 89.925L214.009 93.8244Z" fill="#01B2FF"/>
<path d="M218.855 87.101C220.409 87.101 221.669 85.8411 221.669 84.2869C221.669 82.7326 220.409 81.4727 218.855 81.4727C217.301 81.4727 216.041 82.7326 216.041 84.2869C216.041 85.8411 217.301 87.101 218.855 87.101Z" fill="#E8EDFE"/>
<path d="M210.021 87.101C211.575 87.101 212.835 85.8411 212.835 84.2869C212.835 82.7326 211.575 81.4727 210.021 81.4727C208.467 81.4727 207.207 82.7326 207.207 84.2869C207.207 85.8411 208.467 87.101 210.021 87.101Z" fill="#E8EDFE"/>
<path d="M201.189 87.101C202.743 87.101 204.003 85.8411 204.003 84.2869C204.003 82.7326 202.743 81.4727 201.189 81.4727C199.635 81.4727 198.375 82.7326 198.375 84.2869C198.375 85.8411 199.635 87.101 201.189 87.101Z" fill="#E8EDFE"/>
<path d="M329.895 271.055C329.895 271.055 314.805 273.255 309.124 274.468C303.443 275.681 279.403 296.387 281.545 297.842C283.686 299.297 294.127 304.642 300.485 302.595C306.842 300.547 305.629 295.751 314.493 296.616C323.357 297.482 333.839 288.987 333.839 288.987L392.159 257.8L383.712 236.651L329.895 271.055Z" fill="#FFBBA5"/>
<path d="M458.111 96.1793C451.975 108.991 450.515 126.957 460.542 131.759C470.57 136.562 488.287 126.381 494.423 113.571C500.559 100.761 497.406 86.4797 487.378 81.6768C477.351 76.8739 464.247 83.3678 458.111 96.1793Z" fill="#00004C"/>
<path d="M452.646 130.716C452.646 130.716 457.222 150.603 439.319 156.174L434.719 185.192L480.729 188.023L484.267 150.861C484.267 150.861 478.371 132.17 479.433 114.119L452.646 130.716Z" fill="#FFBBA5"/>
<path opacity="0.33" d="M484.268 150.865C484.268 150.865 482.134 170.918 450.402 179.402H484.268C484.268 179.402 488.579 158.872 484.268 150.865Z" fill="#FF9E7C"/>
<path d="M415.962 244.301L418.088 162.898C418.088 162.898 407.825 164.668 400.747 180.595C393.669 196.522 379.514 229.083 379.514 229.083L316.617 270.038L334.753 290.969C349.107 283.68 399.676 269.899 415.962 244.301Z" fill="#56A1F8"/>
<g style="mix-blend-mode:multiply" opacity="0.14">
<path d="M334.743 290.969C349.102 283.679 399.671 269.899 415.957 244.301L417.258 194.434C413.291 208.49 408.672 222.451 400.475 234.459C391.273 247.937 377.994 258.223 363.667 266.04C359.853 269.852 351.453 272.145 346.531 274.233C340.69 276.709 334.757 278.958 328.798 281.133C328.328 281.304 327.585 281.499 326.734 281.723L334.743 290.969Z" fill="#56A1F8"/>
</g>
<path d="M514.569 307.697L521.676 356.771H412.775L408.945 301.718L514.569 307.697Z" fill="#000067"/>
<path d="M408.945 311.687L411.531 338.907C411.531 338.907 428.678 319.295 432.898 301.714L408.945 311.687Z" fill="#00004C"/>
<path d="M475.367 313.958C475.367 313.958 485.636 342.35 520.79 350.641L517.499 327.919L475.367 313.958Z" fill="#00004C"/>
<path d="M459.494 327.919L464.372 356.771H458.283L459.494 327.919Z" fill="#00004C"/>
<path d="M412.781 305.176C412.781 305.176 436.913 317.184 501.014 313.119C500.701 310.93 484.273 162.903 484.273 162.903C484.273 162.903 476.628 176.161 458.293 176.161C439.958 176.161 438.476 161.786 438.476 161.786C438.476 161.786 411.155 277.159 412.781 304.051" fill="#FAFAFA"/>
<g style="mix-blend-mode:multiply" opacity="0.14">
<path d="M501.008 313.119C500.849 312.003 496.505 273.051 492.287 235.095C463.145 243.712 433.346 238.211 422.435 235.613C416.829 263.983 412.07 292.367 412.774 304.051V305.176C412.774 305.176 436.906 317.184 501.008 313.119Z" fill="#56A1F8"/>
</g>
<path d="M407.412 81.1026C409.445 95.1736 418.015 102.684 429.205 102.684C440.396 102.684 449.467 91.9279 449.467 78.6549C449.467 65.3819 440.397 54.6241 429.205 54.6241C414.135 54.6241 405.515 67.9672 407.412 81.1026Z" fill="#00004C"/>
<path d="M496.383 90.9073C509.746 90.9073 520.579 78.9696 520.579 64.2437C520.579 49.5178 509.746 37.5801 496.383 37.5801C483.02 37.5801 472.188 49.5178 472.188 64.2437C472.188 78.9696 483.02 90.9073 496.383 90.9073Z" fill="#00004C"/>
<path d="M501.577 98.0265C506.453 98.0265 510.406 94.381 510.406 89.8841C510.406 85.3872 506.453 81.7417 501.577 81.7417C496.701 81.7417 492.748 85.3872 492.748 89.8841C492.748 94.381 496.701 98.0265 501.577 98.0265Z" fill="#00004C"/>
<path d="M477.752 120.372L453.121 134.52C453.46 138.956 452.579 143.4 450.574 147.371C456.483 145.329 472.193 140.826 477.752 120.372Z" fill="#FF9E7C"/>
<path d="M481.656 110.31C477.509 123.788 468.773 144.456 444.855 144.475C425.844 144.486 406.582 101.092 422.217 70.3224C428.249 58.4577 441.353 50.7443 475.374 67.3093C485.145 72.0659 481.656 110.31 481.656 110.31Z" fill="#FFBBA5"/>
<path d="M424.656 65.4307C424.656 65.4307 429.206 96.5744 469.013 87.1725L466.728 71.9959L424.656 65.4307Z" fill="#FF9E7C"/>
<path d="M475.375 66.2136C475.375 66.2136 454.94 82.197 478.053 100.859C495.268 114.76 507.962 67.0354 475.375 66.2136Z" fill="#00004C"/>
<path d="M473.836 113.508C478.143 117.371 485.075 116.664 489.318 111.931C493.56 107.198 493.508 100.232 489.2 96.3705C484.892 92.5095 477.961 93.2161 473.718 97.9477C469.476 102.679 469.528 109.644 473.836 113.508Z" fill="#FFBBA5"/>
<path d="M443.176 99.6238C443.251 101.008 444.068 102.089 444.999 102.039C445.929 101.989 446.624 100.824 446.549 99.4399C446.474 98.0553 445.658 96.9734 444.726 97.0247C443.794 97.076 443.096 98.2392 443.176 99.6238Z" fill="#00004C"/>
<path d="M424.375 101.754C424.451 103.139 425.266 104.219 426.198 104.169C427.13 104.119 427.824 102.955 427.748 101.57C427.672 100.186 426.857 99.1049 425.926 99.1549C424.994 99.205 424.3 100.369 424.375 101.754Z" fill="#00004C"/>
<path d="M442.686 128.688C439.163 129.484 436.319 127.062 434.634 125.045C433.976 124.302 433.395 123.493 432.9 122.633C432.9 122.633 440.006 123.028 448.353 115.698C448.353 115.698 451.533 126.693 442.686 128.688Z" fill="#B63847"/>
<path d="M448.353 115.698C445.49 123.472 438.306 124.859 434.634 125.045C433.976 124.302 433.395 123.493 432.9 122.633C432.9 122.633 440.006 123.027 448.353 115.698Z" fill="#FFEEF7"/>
<path d="M448.353 115.698C445.49 123.472 438.306 124.859 434.634 125.045C433.976 124.302 433.395 123.493 432.9 122.633C432.9 122.633 440.006 123.027 448.353 115.698Z" fill="#FFEEF7"/>
<path d="M442.686 128.689C444.088 128.442 445.387 127.789 446.422 126.811C447.456 125.833 448.18 124.572 448.504 123.186C446.468 122.687 444.323 122.878 442.407 123.73C440.491 124.581 438.912 126.045 437.918 127.891C439.347 128.756 441.053 129.041 442.686 128.689Z" fill="#D84655"/>
<path d="M434.612 100.043C434.224 104.534 432.317 108.758 429.205 112.019C430.737 113.68 432.729 114.848 434.927 115.373" stroke="#DE7D65" stroke-width="1.30329" stroke-linecap="round" stroke-linejoin="round"/>
<path d="M450.401 93.8491C449.466 92.7209 448.249 91.8605 446.874 91.3552C445.498 90.8499 444.013 90.7178 442.57 90.9724" stroke="#00004C" stroke-width="2.50151" stroke-linecap="round" stroke-linejoin="round"/>
<path d="M428.349 90.1318C427.106 89.7703 425.781 89.8111 424.563 90.2482C423.345 90.6854 422.296 91.4966 421.566 92.5658" stroke="#00004C" stroke-width="2.50151" stroke-linecap="round" stroke-linejoin="round"/>
<path d="M483.125 98.8259C481.895 99.1245 480.749 99.7006 479.775 100.51C478.802 101.32 478.026 102.341 477.508 103.496" stroke="#DE7D65" stroke-width="1.30329" stroke-linecap="round" stroke-linejoin="round"/>
<path d="M423.059 57.791C423.059 57.791 423.828 97.3623 472.616 84.751L495.676 85.8029C497.9 65.7258 498.13 70.8952 489.087 59.5096C467.912 32.8472 429.83 38.1304 423.059 57.791Z" fill="#00004C"/>
<path d="M446.444 152.419L418.082 162.902C418.082 162.902 406.757 200.064 402.864 209.266C398.972 218.468 412.066 250.322 414.19 262.709C416.314 275.097 399.325 304.472 399.681 343.05C399.681 343.05 413.572 327.242 427.142 309.545C440.711 291.848 441.09 256.692 434.72 233.333C428.35 209.974 446.444 152.419 446.444 152.419Z" fill="#1E65B6"/>
<path d="M484.267 150.865C484.267 150.865 465.156 196.517 464.802 226.605C464.448 256.693 439.958 327.916 539.834 349.417C539.834 349.417 518.245 280.047 519.306 245.009C520.366 209.97 528.863 167.5 528.863 167.5L484.267 150.865Z" fill="#1E65B6"/>
<g style="mix-blend-mode:multiply" opacity="0.14">
<path d="M464.01 237.881C460.572 271.729 450.924 330.279 539.836 349.417C539.836 349.417 518.247 280.047 519.307 245.009C519.424 241.185 519.633 237.27 519.905 233.334L511.827 208.641C508.517 242.701 470.055 240.347 464.01 237.881Z" fill="#56A1F8"/>
</g>
<g style="mix-blend-mode:multiply" opacity="0.14">
<path d="M462.278 256.288C461.979 260.828 461.822 265.544 461.953 270.355L462.134 270.748C462.134 270.748 480.138 279.191 497.558 288.259C514.929 297.302 536.64 348.432 536.763 348.723C537.779 348.958 538.793 349.193 539.835 349.417C539.835 349.417 526.227 305.689 521.15 270.133L462.278 256.288Z" fill="#56A1F8"/>
</g>
<g style="mix-blend-mode:multiply" opacity="0.14">
<path d="M427.139 309.541C439.854 292.958 440.987 261.04 435.837 237.873C423.059 240.007 408.946 240.11 403.218 222.645L406.018 233.902C409.11 244.836 413.098 256.346 414.19 262.713C416.316 275.096 399.325 304.476 399.681 343.054C399.679 343.047 413.57 327.238 427.139 309.541Z" fill="#56A1F8"/>
</g>
<path d="M409.143 212.928L449.077 221.097C450.397 221.367 451.607 222.025 452.552 222.986C453.497 223.947 454.133 225.168 454.381 226.493L463.828 277.011C464.046 278.172 463.956 279.371 463.567 280.487C463.178 281.603 462.504 282.598 461.612 283.374C460.72 284.149 459.641 284.678 458.482 284.907C457.322 285.136 456.123 285.059 455.003 284.681L426.389 275.051C425.48 274.745 424.647 274.249 423.944 273.597C423.24 272.945 422.683 272.151 422.309 271.268L401.547 222.215C401.065 221.078 400.903 219.831 401.078 218.608C401.254 217.386 401.76 216.235 402.541 215.279C403.323 214.323 404.351 213.599 405.515 213.185C406.678 212.77 407.933 212.682 409.143 212.928Z" fill="#56A1F8"/>
<path d="M405.624 212.928L445.558 221.097C446.879 221.367 448.089 222.025 449.033 222.986C449.978 223.947 450.615 225.168 450.863 226.493L460.311 277.011C460.528 278.172 460.438 279.371 460.049 280.487C459.66 281.603 458.986 282.598 458.094 283.374C457.202 284.149 456.123 284.677 454.963 284.907C453.804 285.136 452.605 285.059 451.484 284.682L422.871 275.051C421.962 274.745 421.129 274.249 420.426 273.597C419.722 272.945 419.166 272.152 418.792 271.268L398.022 222.211C397.541 221.074 397.38 219.827 397.555 218.604C397.731 217.381 398.238 216.23 399.021 215.275C399.803 214.319 400.832 213.596 401.996 213.182C403.16 212.768 404.414 212.681 405.624 212.928Z" fill="#00004C"/>
<path d="M468.442 268.068C468.442 268.068 451.865 269.352 447.929 268.169C443.993 266.986 439.099 258.875 437.27 256.301C435.442 253.727 437.68 253.034 437.68 253.034C436.726 252.256 435.819 251.42 434.965 250.532C433.277 248.826 436.242 247.42 436.242 247.42C436.031 247.31 435.845 247.158 435.696 246.972C435.547 246.786 435.438 246.572 435.377 246.341C435.315 246.111 435.303 245.871 435.339 245.636C435.376 245.4 435.462 245.175 435.59 244.975C436.318 243.981 438.046 244.368 438.046 244.368C437.024 243.629 437.019 240.991 441.343 241.992C444.917 242.947 448.42 244.154 451.824 245.603L457.994 246.158L456.225 236.62C456.225 236.62 467.422 241.305 472.818 249.305L492.55 257.381C492.55 257.381 494.685 271.101 490.557 279.54C490.559 279.547 472.849 268.604 468.442 268.068Z" fill="#FFBBA5"/>
<path d="M475.367 267.724C470.265 266.058 471.23 266.11 456.855 267.152C445.237 267.995 441.855 262.682 440.436 260.915C442.658 264.013 445.477 267.432 447.928 268.169C451.864 269.352 468.44 268.067 468.44 268.067C470.11 268.27 473.693 269.968 477.489 271.998C477.46 270.192 477.048 268.274 475.367 267.724Z" fill="#FF9E7C"/>
<path d="M438.047 244.371C438.047 244.371 446.705 249.011 448.262 249.852C449.372 250.379 450.587 250.647 451.815 250.637" stroke="#FF9E7C" stroke-width="0.757956" stroke-linecap="round" stroke-linejoin="round"/>
<path d="M436.244 247.423C436.244 247.423 444.683 254.281 446.156 255.19C447.63 256.099 454.629 257.374 454.629 257.374" stroke="#FF9E7C" stroke-width="0.757956" stroke-linecap="round" stroke-linejoin="round"/>
<path d="M437.68 253.034C437.68 253.034 445.955 261.513 448.115 262.277C450.249 262.896 452.425 263.363 454.626 263.674" stroke="#FF9E7C" stroke-width="0.757956" stroke-linecap="round" stroke-linejoin="round"/>
<path d="M546.246 294.304C560.005 289.457 558.128 260.352 552.5 230.959C541.206 171.98 528.861 167.5 528.861 167.5C491.782 173.033 513.755 241.402 519.818 258.847C513.154 255.784 477.507 250.141 477.507 250.141C473.232 248.704 468.03 268.846 474.014 271.999C486.993 278.84 527.302 295.972 546.246 294.304Z" fill="#56A1F8"/>
<g style="mix-blend-mode:multiply" opacity="0.14">
<path d="M519.82 258.847C519.82 258.847 530.3 261.68 537.805 266.37C532.011 260.768 525.259 256.251 517.869 253.034L519.82 258.847Z" fill="#56A1F8"/>
</g>
<g style="mix-blend-mode:multiply" opacity="0.14">
<path d="M546.247 294.304C557.889 290.202 558.336 268.731 554.787 244.414C560.791 286.473 534.984 287.314 517.869 282.005C501.109 276.801 472.55 266.746 471.367 266.322C471.571 268.966 472.368 271.13 474.016 271.999C486.994 278.841 527.303 295.972 546.247 294.304Z" fill="#56A1F8"/>
</g>
<path d="M309.818 343.578H381.533V350.552H309.818C309.362 350.552 308.925 350.371 308.603 350.049C308.281 349.727 308.1 349.29 308.1 348.834V345.297C308.1 344.841 308.281 344.404 308.603 344.081C308.925 343.759 309.362 343.578 309.818 343.578Z" fill="#1E65B6"/>
<path d="M381.873 343.584L427.581 347.559C427.954 347.592 428.302 347.764 428.555 348.04C428.808 348.317 428.949 348.678 428.949 349.053C428.949 349.451 428.791 349.832 428.509 350.114C428.228 350.395 427.846 350.554 427.448 350.554H381.743C381.345 350.554 380.963 350.395 380.682 350.114C380.4 349.832 380.242 349.451 380.242 349.053V345.078C380.242 344.87 380.286 344.664 380.37 344.474C380.454 344.284 380.576 344.113 380.73 343.973C380.883 343.832 381.064 343.725 381.261 343.658C381.457 343.592 381.666 343.566 381.873 343.584Z" fill="#56A1F8"/>
<path d="M171.458 311.687H367.783C369.777 311.687 371.744 311.237 373.539 310.371C375.335 309.505 376.911 308.245 378.152 306.685C379.393 305.125 380.265 303.305 380.705 301.361C381.145 299.417 381.141 297.399 380.692 295.457L349.117 158.712C348.443 155.793 346.8 153.188 344.456 151.324C342.111 149.459 339.204 148.443 336.208 148.443H139.887C137.894 148.444 135.927 148.894 134.132 149.761C132.337 150.627 130.76 151.887 129.52 153.448C128.28 155.008 127.407 156.828 126.968 158.772C126.529 160.717 126.534 162.735 126.983 164.677L158.554 301.423C159.228 304.34 160.871 306.943 163.215 308.807C165.558 310.67 168.463 311.686 171.458 311.687Z" fill="#56A1F8"/>
<path d="M161.922 311.687H358.247C360.241 311.687 362.208 311.237 364.003 310.371C365.798 309.505 367.375 308.245 368.616 306.685C369.857 305.125 370.729 303.305 371.169 301.361C371.609 299.417 371.605 297.399 371.156 295.457L339.586 158.712C338.912 155.793 337.269 153.188 334.925 151.324C332.58 149.459 329.673 148.443 326.677 148.443H130.351C128.358 148.443 126.39 148.893 124.594 149.759C122.798 150.625 121.221 151.885 119.98 153.446C118.74 155.006 117.867 156.827 117.427 158.771C116.988 160.716 116.993 162.734 117.442 164.677L149.013 301.423C149.688 304.341 151.331 306.944 153.676 308.808C156.02 310.672 158.927 311.687 161.922 311.687Z" fill="#000067"/>
<path d="M228.638 258.233C228.743 256.755 229.404 255.372 230.488 254.362C231.572 253.353 232.998 252.791 234.479 252.791H265.442C265.617 252.791 265.792 252.825 265.954 252.893C266.117 252.96 266.264 253.058 266.389 253.183C266.513 253.307 266.612 253.454 266.679 253.617C266.747 253.779 266.781 253.953 266.781 254.129C266.781 254.305 266.747 254.48 266.68 254.642C266.612 254.805 266.514 254.952 266.389 255.077C266.265 255.201 266.117 255.3 265.954 255.367C265.792 255.435 265.618 255.469 265.442 255.469H263.542C263.243 255.469 262.955 255.582 262.736 255.786C262.518 255.99 262.384 256.269 262.364 256.567L256.561 338.837C256.493 339.798 256.624 340.763 256.946 341.672C257.267 342.581 257.772 343.414 258.429 344.119C259.086 344.824 259.881 345.387 260.764 345.772C261.648 346.157 262.602 346.356 263.565 346.356H282.982C283.55 346.356 284.095 346.582 284.497 346.984C284.899 347.385 285.125 347.93 285.125 348.499C285.125 349.067 284.899 349.612 284.497 350.014C284.095 350.415 283.55 350.641 282.982 350.641H228.404C227.601 350.641 226.806 350.476 226.069 350.155C225.332 349.834 224.669 349.366 224.121 348.778C223.573 348.19 223.152 347.495 222.884 346.738C222.616 345.98 222.507 345.175 222.563 344.374L228.638 258.233Z" fill="#56A1F8"/>
<path d="M665.652 356.771H3.06559C2.66307 356.771 2.26446 356.692 1.89253 356.538C1.52061 356.384 1.18265 356.159 0.897967 355.874C0.613284 355.589 0.387447 355.252 0.233371 354.88C0.0792951 354.508 -3.35294e-08 354.109 0 353.707C0 352.894 0.32298 352.114 0.897891 351.539C1.4728 350.964 2.25254 350.641 3.06559 350.641H665.652C666.465 350.641 667.245 350.964 667.82 351.539C668.395 352.114 668.718 352.894 668.718 353.707C668.718 354.109 668.638 354.508 668.484 354.88C668.33 355.252 668.104 355.589 667.82 355.874C667.535 356.159 667.197 356.384 666.825 356.538C666.453 356.692 666.055 356.771 665.652 356.771Z" fill="#00004C"/>
<path d="M689.935 356.771H678.971C678.158 356.771 677.378 356.448 676.804 355.874C676.229 355.299 675.906 354.519 675.906 353.707C675.906 353.304 675.985 352.906 676.139 352.534C676.293 352.162 676.519 351.824 676.803 351.539C677.088 351.254 677.426 351.029 677.798 350.874C678.17 350.72 678.568 350.641 678.971 350.641H689.935C690.337 350.641 690.736 350.72 691.108 350.874C691.48 351.029 691.817 351.254 692.102 351.539C692.386 351.824 692.612 352.162 692.766 352.534C692.92 352.906 692.999 353.304 692.999 353.707C692.999 354.519 692.676 355.299 692.102 355.874C691.527 356.448 690.747 356.771 689.935 356.771Z" fill="#00004C"/>
<path d="M75.9792 320.941C86.6413 320.941 95.2846 320.315 95.2846 319.544C95.2846 318.772 86.6413 318.147 75.9792 318.147C65.3171 318.147 56.6738 318.772 56.6738 319.544C56.6738 320.315 65.3171 320.941 75.9792 320.941Z" fill="#000067"/>
<path d="M72.6871 316.554C72.6937 311.958 74.2107 307.491 77.0047 303.842C81.9865 297.847 90.8881 296.152 95.6334 289.97C98.5339 286.19 99.9773 280.714 104.45 279.081C108.475 277.606 112.77 280.097 117.023 280.628C119.927 280.992 122.886 280.423 125.793 280.773C128.7 281.123 131.809 282.812 132.358 285.686C133.007 289.082 129.801 292.008 126.605 293.315C123.408 294.622 119.753 295.206 117.235 297.568C114.492 300.146 113.733 304.276 111.165 307.026C106.794 311.708 99.0205 310.812 93.5784 314.192C86.0414 318.876 85.8938 330.326 78.3668 334.643C74.1142 337.085 73.1299 334.069 73.1624 330.431C73.1999 325.802 72.5258 321.178 72.6871 316.554Z" fill="#93C800"/>
<path d="M77.0703 331.914C79.4202 321.683 84.3964 312.242 91.5081 304.521C98.6198 296.801 107.621 291.068 117.625 287.887" stroke="#E8EDFE" stroke-width="0.774216" stroke-linecap="round" stroke-linejoin="round"/>
<path d="M77.8286 313.641C77.5867 309.051 75.8429 304.668 72.8656 301.166C67.5837 295.435 58.607 294.199 53.5502 288.266C50.4609 284.639 48.7386 279.251 44.1871 277.844C40.0934 276.578 35.9321 279.285 31.7108 280.034C28.8341 280.544 25.8448 280.129 22.9556 280.627C20.0663 281.124 17.052 282.97 16.6505 285.871C16.1765 289.294 19.5272 292.052 22.7892 293.198C26.0512 294.344 29.7284 294.735 32.365 296.971C35.2354 299.405 36.2048 303.489 38.9102 306.102C43.5167 310.553 51.2338 309.26 56.841 312.356C64.6094 316.647 65.3461 328.069 73.0807 332C77.4584 334.221 78.2814 331.158 78.0625 327.529C77.7936 322.897 78.2326 318.245 77.8286 313.641Z" fill="#93C800"/>
<path d="M74.2453 329.2C71.3761 319.101 65.9234 309.925 58.4253 302.577C50.9272 295.229 41.6428 289.964 31.4883 287.299" stroke="#E8EDFE" stroke-width="0.774216" stroke-linecap="round" stroke-linejoin="round"/>
<path d="M52.8385 300.426C54.0467 294.437 60.044 290.629 62.5105 285.042C64.7118 280.051 63.8476 274.328 63.4736 268.887C63.0996 263.446 63.5199 257.34 67.466 253.574C70.6141 250.572 75.312 249.769 78.7353 247.079C81.3869 244.996 83.0704 241.951 85.2667 239.388C87.463 236.825 90.6612 234.62 93.9782 235.224C97.5091 235.866 99.8092 239.578 100.048 243.158C100.287 246.737 98.9525 250.216 97.6417 253.555C96.3309 256.895 94.9976 260.374 95.2427 263.954C95.7981 272.046 104.184 278.393 103.535 286.479C103.097 291.95 98.6123 296.153 94.1633 299.362C89.7144 302.57 84.7489 305.655 82.4375 310.633C79.512 316.936 82.8615 336.334 70.8806 328.418C63.4623 323.516 50.9048 310.014 52.8385 300.426Z" fill="#93C800"/>
<path d="M74.3137 333.686C74.3137 333.686 64.1151 288.191 88.0857 248.064Z" fill="#93C800"/>
<path d="M74.3137 333.686C74.3137 333.686 64.1151 288.191 88.0857 248.064" stroke="#E8EDFE" stroke-width="0.774216" stroke-linecap="round" stroke-linejoin="round"/>
<path d="M95.3726 319.544H95.2851C95.2851 320.316 86.6424 320.941 75.981 320.941C65.3195 320.941 56.6756 320.316 56.6756 319.544H56.588C56.588 319.544 45.0586 326.882 45.0586 336.315C45.0586 345.748 56.4142 350.641 56.4142 350.641H95.5477C95.5477 350.641 106.903 345.75 106.903 336.315C106.903 326.881 95.3726 319.544 95.3726 319.544Z" fill="#1E65B6"/>
<path d="M104.72 343.192C102.341 346.408 99.1876 348.971 95.5525 350.641H56.4139C56.4139 350.641 45.0508 345.75 45.0508 336.315C45.0508 331.507 48.0526 327.245 50.9906 324.225C51.0438 325.469 51.3938 326.681 52.0112 327.761C53.8974 331.116 57.4758 333.128 60.9979 334.68C74.6661 340.718 89.6914 342.409 104.72 343.192Z" fill="#F6E2E0"/>
<path d="M104.72 343.192C102.341 346.408 99.1876 348.971 95.5525 350.641H56.4139C56.4139 350.641 45.0508 345.75 45.0508 336.315C45.0508 331.507 48.0526 327.245 50.9906 324.225C51.0438 325.469 51.3938 326.681 52.0112 327.761C53.8974 331.116 57.4758 333.128 60.9979 334.68C74.6661 340.718 89.6914 342.409 104.72 343.192Z" fill="#968CF4"/>
<path d="M642.3 166.496C663.148 166.496 680.049 149.596 680.049 128.748C680.049 107.899 663.148 90.9985 642.3 90.9985C621.452 90.9985 604.551 107.899 604.551 128.748C604.551 149.596 621.452 166.496 642.3 166.496Z" fill="#DEE4FF"/>
<path d="M642.302 158.362C658.657 158.362 671.916 145.103 671.916 128.748C671.916 112.392 658.657 99.1334 642.302 99.1334C625.946 99.1334 612.688 112.392 612.688 128.748C612.688 145.103 625.946 158.362 642.302 158.362Z" fill="#E8EDFE"/>
<path d="M642.302 150.226C654.164 150.226 663.78 140.61 663.78 128.748C663.78 116.886 654.164 107.27 642.302 107.27C630.44 107.27 620.824 116.886 620.824 128.748C620.824 140.61 630.44 150.226 642.302 150.226Z" fill="#DEE4FF"/>
<path d="M642.301 142.088C649.669 142.088 655.643 136.115 655.643 128.746C655.643 121.378 649.669 115.405 642.301 115.405C634.932 115.405 628.959 121.378 628.959 128.746C628.959 136.115 634.932 142.088 642.301 142.088Z" fill="#E8EDFE"/>
<path d="M647.509 128.748C647.509 129.777 647.204 130.784 646.632 131.64C646.06 132.497 645.247 133.164 644.295 133.558C643.344 133.952 642.297 134.055 641.287 133.854C640.277 133.654 639.349 133.158 638.621 132.429C637.893 131.701 637.397 130.773 637.196 129.763C636.995 128.753 637.098 127.706 637.492 126.755C637.886 125.804 638.554 124.99 639.41 124.418C640.266 123.846 641.273 123.541 642.303 123.541C643.684 123.541 645.008 124.089 645.984 125.066C646.961 126.042 647.509 127.367 647.509 128.748Z" fill="#DEE4FF"/>
<path d="M663.132 107.915C662.742 107.525 662.212 107.305 661.66 107.305C661.107 107.305 660.578 107.525 660.187 107.915L642.301 125.801C641.911 126.191 641.691 126.721 641.691 127.274C641.691 127.826 641.911 128.356 642.301 128.746C642.692 129.137 643.221 129.356 643.774 129.356C644.326 129.356 644.856 129.137 645.247 128.746L663.132 110.861C663.326 110.667 663.479 110.438 663.584 110.185C663.689 109.932 663.743 109.661 663.743 109.388C663.743 109.114 663.689 108.843 663.584 108.591C663.479 108.338 663.326 108.108 663.132 107.915Z" fill="#DEE4FF"/>
<path d="M659.449 111.597L679.975 91.0712L678.503 85.1801L660.984 102.699L659.449 111.597Z" fill="#DEE4FF"/>
<path d="M659.449 111.597L679.975 91.0711L685.866 92.5445L668.347 110.064L659.449 111.597Z" fill="#DEE4FF"/>
<path d="M156.292 227.927H107.095C105.014 227.832 103.019 227.072 101.403 225.759C99.7865 224.445 98.6338 222.648 98.1143 220.632L89.0663 181.437C88.137 177.407 90.6485 174.14 94.6784 174.14H143.874C145.955 174.235 147.95 174.996 149.567 176.309C151.183 177.623 152.336 179.42 152.855 181.437L161.903 220.627C162.833 224.662 160.32 227.927 156.292 227.927Z" fill="#1E65B6"/>
<path d="M99.5059 192.803L102.945 195.513L108.116 188.79" stroke="#E8EDFE" stroke-width="2.50151" stroke-miterlimit="10" stroke-linecap="round"/>
<path d="M114.471 189.885H146.886" stroke="#E8EDFE" stroke-width="2.50151" stroke-miterlimit="10" stroke-linecap="round"/>
<path d="M115.6 194.783H133.214" stroke="#E8EDFE" stroke-width="2.50151" stroke-miterlimit="10" stroke-linecap="round"/>
<path d="M103.844 211.564L107.283 214.274L112.454 207.551" stroke="#E8EDFE" stroke-width="2.50151" stroke-miterlimit="10" stroke-linecap="round"/>
<path d="M118.801 208.646H151.217" stroke="#E8EDFE" stroke-width="2.50151" stroke-miterlimit="10" stroke-linecap="round"/>
<path d="M119.934 213.544H137.548" stroke="#E8EDFE" stroke-width="2.50151" stroke-miterlimit="10" stroke-linecap="round"/>
<path d="M141.411 61.4407L161.024 61.4407C166.603 61.4407 171.125 56.9183 171.125 51.3396V34.1567C171.125 28.5781 166.603 24.0557 161.024 24.0557L141.411 24.0557C135.832 24.0557 131.31 28.5781 131.31 34.1567V51.3396C131.31 56.9183 135.832 61.4407 141.411 61.4407Z" fill="#000067"/>
<path d="M154.652 61.4407L165.075 69.049L164.241 61.4407H154.652Z" fill="#000067"/>
<path d="M157.848 46.164C155.656 44.6106 154.93 45.9139 153.549 47.4148C152.168 48.9157 148.756 45.0383 148.756 45.0383C148.756 45.0383 145.344 41.161 147.005 39.9803C148.666 38.7996 150.057 38.2505 148.799 35.8766C147.611 33.6377 146.533 32.467 145.815 32.4808C145.097 32.4945 144.109 33.4351 143.377 34.0917C142.645 34.7484 138.593 39.3337 145.85 47.5899C153.107 55.8461 158.175 52.4153 158.919 51.7749C159.663 51.1345 160.722 50.274 160.829 49.5648C160.935 48.8556 159.917 47.6286 157.848 46.164Z" fill="#E8EDFE"/>
<path d="M552.334 120.254H575.692C576.773 120.254 577.843 120.467 578.841 120.88C579.84 121.294 580.747 121.9 581.511 122.664C582.276 123.428 582.882 124.336 583.295 125.334C583.709 126.333 583.922 127.403 583.922 128.484V149.41C583.922 151.593 583.055 153.686 581.511 155.229C579.968 156.773 577.875 157.64 575.692 157.64H552.334C551.253 157.64 550.183 157.427 549.185 157.013C548.186 156.6 547.279 155.994 546.515 155.229C545.751 154.465 545.145 153.558 544.731 152.559C544.318 151.561 544.105 150.491 544.105 149.41V128.482C544.105 126.3 544.972 124.207 546.516 122.664C548.059 121.121 550.152 120.254 552.334 120.254Z" fill="#1E65B6"/>
<path d="M560.575 157.639L550.152 165.247L550.987 157.639H560.575Z" fill="#1E65B6"/>
<path d="M574.5 142.981L575.025 140.605C575.078 140.365 575.034 140.115 574.902 139.908C574.77 139.702 574.562 139.556 574.323 139.503L572.862 139.18C572.677 139.141 572.509 139.045 572.381 138.907C572.253 138.768 572.171 138.593 572.146 138.406C572.072 137.806 571.933 137.216 571.73 136.646C571.668 136.467 571.664 136.274 571.716 136.093C571.769 135.911 571.876 135.751 572.024 135.633L573.188 134.691C573.379 134.537 573.5 134.313 573.525 134.069C573.551 133.825 573.479 133.581 573.324 133.39L571.792 131.497C571.716 131.402 571.622 131.324 571.515 131.266C571.408 131.207 571.291 131.171 571.17 131.158C571.05 131.145 570.927 131.157 570.811 131.191C570.694 131.226 570.586 131.283 570.492 131.359L569.328 132.301C569.182 132.421 569.002 132.493 568.813 132.506C568.624 132.52 568.436 132.475 568.274 132.377C568.017 132.219 567.752 132.075 567.48 131.946C567.207 131.817 566.928 131.704 566.643 131.605C566.465 131.542 566.31 131.425 566.201 131.271C566.092 131.116 566.033 130.932 566.033 130.742L566.023 129.242C566.021 128.996 565.921 128.762 565.747 128.59C565.572 128.418 565.336 128.322 565.091 128.324L562.654 128.341C562.409 128.343 562.175 128.442 562.003 128.617C561.83 128.792 561.735 129.028 561.736 129.273L561.748 130.774C561.751 130.963 561.695 131.15 561.589 131.306C561.482 131.463 561.329 131.583 561.151 131.649C560.581 131.853 560.036 132.12 559.525 132.445C559.364 132.544 559.177 132.592 558.988 132.58C558.8 132.569 558.619 132.5 558.472 132.382L557.296 131.458C557.103 131.307 556.858 131.238 556.615 131.268C556.371 131.297 556.149 131.422 555.998 131.614L554.488 133.52C554.413 133.616 554.357 133.725 554.325 133.842C554.292 133.959 554.282 134.081 554.297 134.202C554.311 134.322 554.349 134.439 554.409 134.545C554.468 134.651 554.548 134.744 554.643 134.819L555.82 135.744C555.97 135.86 556.08 136.019 556.135 136.2C556.191 136.38 556.189 136.574 556.13 136.754C555.935 137.325 555.803 137.917 555.738 138.517C555.716 138.705 555.637 138.882 555.511 139.022C555.384 139.163 555.218 139.262 555.033 139.304L553.578 139.647C553.339 139.703 553.133 139.852 553.004 140.06C552.875 140.269 552.834 140.52 552.89 140.758L553.449 143.135C553.477 143.253 553.527 143.365 553.598 143.463C553.669 143.562 553.759 143.645 553.862 143.709C553.965 143.773 554.08 143.816 554.2 143.836C554.32 143.855 554.442 143.851 554.561 143.823L556.017 143.48C556.2 143.435 556.393 143.449 556.569 143.519C556.745 143.588 556.895 143.711 556.998 143.869C557.325 144.378 557.706 144.849 558.135 145.275C558.269 145.409 558.357 145.581 558.388 145.767C558.42 145.954 558.392 146.145 558.31 146.316L557.671 147.666C557.619 147.776 557.589 147.895 557.583 148.016C557.577 148.138 557.595 148.259 557.636 148.373C557.677 148.487 557.74 148.593 557.822 148.683C557.903 148.772 558.002 148.845 558.112 148.897L560.314 149.939C560.536 150.044 560.79 150.056 561.021 149.974C561.252 149.891 561.44 149.72 561.545 149.499L562.184 148.147C562.264 147.975 562.394 147.833 562.558 147.739C562.722 147.644 562.911 147.604 563.1 147.621C563.701 147.684 564.307 147.679 564.907 147.609C565.095 147.588 565.285 147.627 565.45 147.718C565.616 147.81 565.749 147.95 565.831 148.12L566.489 149.462C566.597 149.683 566.788 149.851 567.02 149.93C567.252 150.01 567.506 149.994 567.726 149.886L569.914 148.813C570.134 148.705 570.302 148.514 570.382 148.283C570.461 148.051 570.445 147.797 570.338 147.576L569.679 146.233C569.594 146.064 569.565 145.873 569.593 145.686C569.622 145.499 569.708 145.326 569.84 145.19C570.262 144.758 570.636 144.281 570.954 143.768C571.055 143.608 571.203 143.484 571.378 143.412C571.553 143.34 571.746 143.324 571.93 143.366L573.392 143.689C573.511 143.716 573.635 143.719 573.755 143.698C573.876 143.677 573.991 143.632 574.094 143.566C574.197 143.501 574.286 143.415 574.356 143.315C574.425 143.214 574.475 143.101 574.5 142.981ZM561.984 143.565C561.161 143.176 560.472 142.552 560.004 141.771C559.536 140.99 559.31 140.088 559.354 139.179C559.399 138.27 559.712 137.394 560.254 136.663C560.796 135.931 561.543 135.377 562.4 135.071C563.257 134.764 564.186 134.718 565.069 134.939C565.952 135.16 566.75 135.638 567.361 136.313C567.973 136.987 568.371 137.828 568.504 138.728C568.638 139.628 568.502 140.548 568.113 141.371C567.855 141.918 567.491 142.409 567.043 142.816C566.595 143.222 566.071 143.536 565.502 143.74C564.932 143.944 564.328 144.033 563.724 144.003C563.12 143.973 562.528 143.824 561.981 143.565H561.984Z" fill="#E8EDFE"/>
<path d="M482.965 102.47C484.568 97.3233 485.378 91.9619 485.366 86.5709C485.366 61.6671 468.829 41.201 448.084 41.201" stroke="#E7EDFD" stroke-width="3.75226" stroke-linecap="round" stroke-linejoin="round"/>
<path d="M480.58 102.47C482.183 97.3233 482.993 91.9619 482.982 86.5709C482.982 61.6671 466.444 41.201 445.699 41.201" stroke="#1E65B6" stroke-width="3.75226" stroke-linecap="round" stroke-linejoin="round"/>
<path d="M481.578 111.252C481.578 111.252 477.555 134.612 447.496 133.841" stroke="#00004C" stroke-width="1.85362" stroke-miterlimit="10"/>
<path d="M439.609 134.729C439.743 136.88 443.288 138.408 447.528 138.146C451.768 137.883 455.096 135.926 454.962 133.768C454.829 131.61 451.284 130.088 447.044 130.352C442.804 130.616 439.476 132.579 439.609 134.729Z" fill="#00004C"/>
<path d="M483.917 86.2369H481.271C475.075 86.2369 470.053 91.2594 470.053 97.4549V109.122C470.053 115.318 475.075 120.34 481.271 120.34H483.917C490.113 120.34 495.135 115.318 495.135 109.122V97.4549C495.135 91.2594 490.113 86.2369 483.917 86.2369Z" fill="#7D6AFE"/>
<path d="M486.97 90.8198H482.189C478.444 90.8198 475.408 93.8554 475.408 97.6001V108.978C475.408 112.723 478.444 115.759 482.189 115.759H486.97C490.715 115.759 493.75 112.723 493.75 108.978V97.6001C493.75 93.8554 490.715 90.8198 486.97 90.8198Z" fill="#E7EDFD"/>
<path d="M487.572 90.8198H482.79C479.045 90.8198 476.01 93.8554 476.01 97.6001V108.978C476.01 112.723 479.045 115.759 482.79 115.759H487.572C491.316 115.759 494.352 112.723 494.352 108.978V97.6001C494.352 93.8554 491.316 90.8198 487.572 90.8198Z" fill="#1E65B6"/>
<g style="mix-blend-mode:multiply" opacity="0.14">
<path d="M490.969 91.7377C491.618 97.1497 491.789 110.374 478.91 114.533C480.046 115.33 481.4 115.758 482.787 115.757H487.575C489.374 115.757 491.098 115.043 492.37 113.771C493.641 112.5 494.356 110.775 494.356 108.977V97.595C494.354 96.4075 494.041 95.2412 493.446 94.2131C492.852 93.1851 491.997 92.3314 490.969 91.7377Z" fill="#56A1F8"/>
</g>
<path d="M352.028 33.6177H268.227C258.557 33.6177 250.717 41.4574 250.717 51.1282V64.47C250.717 74.1408 258.557 81.9805 268.227 81.9805H352.028C361.699 81.9805 369.538 74.1408 369.538 64.47V51.1282C369.538 41.4574 361.699 33.6177 352.028 33.6177Z" fill="#1E65B6"/>
<path d="M350.892 53.0081L349.87 55.0781C349.798 55.2229 349.692 55.3481 349.562 55.443C349.431 55.538 349.279 55.5999 349.119 55.6235L346.834 55.9549C346.651 55.9832 346.48 56.0617 346.338 56.1818C346.197 56.3019 346.092 56.4588 346.035 56.635C345.978 56.8112 345.971 56.9999 346.015 57.1799C346.058 57.3599 346.151 57.5243 346.283 57.6547L347.936 59.2669C348.051 59.3792 348.136 59.5174 348.186 59.6698C348.236 59.8221 348.249 59.9842 348.223 60.1424L347.832 62.4188C347.803 62.6016 347.824 62.7889 347.895 62.9601C347.965 63.1313 348.082 63.2796 348.232 63.3885C348.381 63.4974 348.558 63.5626 348.743 63.5769C348.927 63.5912 349.112 63.554 349.277 63.4694L351.321 62.3938C351.464 62.3191 351.623 62.28 351.784 62.28C351.946 62.28 352.105 62.3191 352.248 62.3938L354.293 63.4694C354.457 63.554 354.642 63.5912 354.827 63.5769C355.011 63.5626 355.188 63.4974 355.338 63.3885C355.488 63.2796 355.604 63.1313 355.675 62.9601C355.745 62.7889 355.767 62.6016 355.737 62.4188L355.347 60.1424C355.32 59.9842 355.333 59.8219 355.383 59.6695C355.432 59.517 355.518 59.3789 355.633 59.2669L357.287 57.6547C357.419 57.5243 357.511 57.3599 357.555 57.1799C357.599 56.9999 357.592 56.8112 357.534 56.635C357.477 56.4588 357.372 56.3019 357.231 56.1818C357.09 56.0617 356.918 55.9832 356.735 55.9549L354.45 55.6235C354.29 55.5999 354.139 55.538 354.008 55.443C353.877 55.3481 353.771 55.2229 353.7 55.0781L352.678 53.0081C352.594 52.843 352.467 52.7041 352.309 52.6072C352.151 52.5102 351.97 52.4589 351.785 52.4589C351.6 52.4589 351.418 52.5102 351.261 52.6072C351.103 52.7041 350.975 52.843 350.892 53.0081Z" fill="#E8EDFE"/>
<path d="M330.062 53.0081L329.04 55.0781C328.968 55.2229 328.862 55.3481 328.732 55.443C328.601 55.538 328.449 55.5999 328.289 55.6235L326.004 55.9549C325.821 55.9832 325.65 56.0617 325.508 56.1818C325.367 56.3019 325.262 56.4588 325.205 56.635C325.148 56.8112 325.141 56.9999 325.184 57.1799C325.228 57.3599 325.321 57.5243 325.453 57.6547L327.106 59.2669C327.221 59.3789 327.307 59.517 327.357 59.6695C327.407 59.8219 327.419 59.9842 327.393 60.1424L327.002 62.4188C326.973 62.6016 326.994 62.7889 327.065 62.9601C327.135 63.1313 327.252 63.2796 327.401 63.3885C327.551 63.4974 327.728 63.5626 327.913 63.5769C328.097 63.5912 328.282 63.554 328.447 63.4694L330.492 62.3938C330.635 62.3191 330.794 62.28 330.955 62.28C331.117 62.28 331.276 62.3191 331.419 62.3938L333.463 63.4694C333.627 63.554 333.812 63.5912 333.997 63.5769C334.181 63.5626 334.358 63.4974 334.508 63.3885C334.658 63.2796 334.774 63.1313 334.845 62.9601C334.915 62.7889 334.937 62.6016 334.907 62.4188L334.517 60.1424C334.491 59.9842 334.504 59.8221 334.553 59.6698C334.603 59.5174 334.689 59.3792 334.803 59.2669L336.457 57.6547C336.588 57.5243 336.681 57.3599 336.725 57.1799C336.769 56.9999 336.762 56.8112 336.704 56.635C336.647 56.4588 336.542 56.3019 336.401 56.1818C336.26 56.0617 336.088 55.9832 335.905 55.9549L333.62 55.6235C333.46 55.5999 333.309 55.538 333.178 55.443C333.047 55.3481 332.941 55.2229 332.87 55.0781L331.848 53.0081C331.764 52.843 331.637 52.7041 331.479 52.6072C331.321 52.5102 331.14 52.4589 330.955 52.4589C330.77 52.4589 330.588 52.5102 330.431 52.6072C330.273 52.7041 330.145 52.843 330.062 53.0081Z" fill="#E8EDFE"/>
<path d="M309.233 53.0081L308.211 55.0781C308.139 55.2228 308.033 55.348 307.903 55.443C307.772 55.538 307.62 55.5999 307.461 55.6235L305.174 55.9549C304.991 55.9832 304.819 56.0617 304.678 56.1818C304.537 56.3018 304.432 56.4587 304.375 56.635C304.318 56.8112 304.311 56.9998 304.354 57.1799C304.398 57.3599 304.491 57.5243 304.623 57.6547L306.276 59.2669C306.391 59.3787 306.478 59.5168 306.527 59.6693C306.577 59.8218 306.589 59.9842 306.563 60.1424L306.172 62.4188C306.142 62.6017 306.164 62.7893 306.234 62.9607C306.305 63.1321 306.422 63.2805 306.572 63.3894C306.722 63.4984 306.899 63.5635 307.084 63.5777C307.268 63.5918 307.453 63.5543 307.618 63.4694L309.662 62.3938C309.805 62.319 309.964 62.28 310.125 62.28C310.287 62.28 310.446 62.319 310.589 62.3938L312.632 63.4694C312.797 63.5543 312.982 63.5918 313.167 63.5777C313.352 63.5635 313.529 63.4984 313.679 63.3894C313.829 63.2805 313.946 63.1321 314.016 62.9607C314.087 62.7893 314.108 62.6017 314.078 62.4188L313.688 60.1424C313.661 59.9842 313.673 59.8218 313.723 59.6693C313.773 59.5168 313.859 59.3787 313.974 59.2669L315.628 57.6547C315.76 57.5242 315.852 57.3597 315.896 57.1796C315.94 56.9995 315.933 56.8107 315.875 56.6345C315.818 56.4582 315.713 56.3014 315.571 56.1814C315.43 56.0614 315.258 55.983 315.075 55.9549L312.79 55.6235C312.63 55.5999 312.478 55.538 312.348 55.443C312.217 55.348 312.111 55.2228 312.04 55.0781L311.018 53.0081C310.934 52.8433 310.806 52.7048 310.649 52.608C310.491 52.5113 310.31 52.4601 310.125 52.4601C309.94 52.4601 309.759 52.5113 309.602 52.608C309.444 52.7048 309.316 52.8433 309.233 53.0081Z" fill="#E8EDFE"/>
<path d="M288.406 53.0081L287.383 55.0781C287.311 55.2228 287.205 55.348 287.075 55.443C286.944 55.538 286.792 55.5999 286.632 55.6235L284.347 55.9549C284.164 55.983 283.992 56.0614 283.851 56.1814C283.71 56.3014 283.604 56.4582 283.547 56.6345C283.49 56.8107 283.483 56.9995 283.526 57.1796C283.57 57.3597 283.663 57.5242 283.794 57.6547L285.449 59.2669C285.563 59.3792 285.649 59.5174 285.699 59.6697C285.749 59.8221 285.761 59.9842 285.736 60.1424L285.344 62.4188C285.314 62.6017 285.336 62.7893 285.406 62.9607C285.477 63.1321 285.593 63.2805 285.743 63.3894C285.893 63.4984 286.07 63.5635 286.255 63.5777C286.44 63.5918 286.625 63.5543 286.79 63.4694L288.834 62.3938C288.977 62.319 289.136 62.28 289.297 62.28C289.458 62.28 289.617 62.319 289.76 62.3938L291.804 63.4694C291.969 63.5543 292.154 63.5918 292.339 63.5777C292.523 63.5635 292.701 63.4984 292.851 63.3894C293.001 63.2805 293.117 63.1321 293.188 62.9607C293.258 62.7893 293.28 62.6017 293.25 62.4188L292.86 60.1424C292.833 59.9842 292.845 59.8218 292.895 59.6693C292.945 59.5167 293.031 59.3787 293.146 59.2669L294.8 57.6547C294.931 57.5243 295.024 57.3599 295.068 57.1799C295.112 56.9998 295.104 56.8112 295.047 56.635C294.99 56.4587 294.885 56.3018 294.744 56.1818C294.603 56.0617 294.431 55.9832 294.248 55.9549L291.962 55.6235C291.802 55.5999 291.65 55.538 291.52 55.443C291.389 55.348 291.283 55.2228 291.211 55.0781L290.189 53.0081C290.106 52.8436 289.978 52.7054 289.821 52.6089C289.663 52.5124 289.482 52.4613 289.298 52.4613C289.113 52.4613 288.932 52.5124 288.775 52.6089C288.617 52.7054 288.49 52.8436 288.406 53.0081Z" fill="#E8EDFE"/>
<path d="M267.577 53.0081L266.555 55.0781C266.484 55.2229 266.378 55.3481 266.247 55.443C266.117 55.538 265.965 55.5999 265.805 55.6235L263.52 55.9549C263.337 55.9832 263.165 56.0617 263.024 56.1818C262.883 56.3019 262.778 56.4588 262.721 56.635C262.664 56.8112 262.656 56.9999 262.7 57.1799C262.744 57.3599 262.837 57.5243 262.968 57.6547L264.622 59.2669C264.736 59.3792 264.822 59.5174 264.872 59.6698C264.922 59.8221 264.934 59.9842 264.908 60.1424L264.518 62.4188C264.488 62.6016 264.51 62.7889 264.58 62.9601C264.651 63.1313 264.767 63.2796 264.917 63.3885C265.067 63.4974 265.244 63.5626 265.428 63.5769C265.613 63.5912 265.798 63.554 265.963 63.4694L268.006 62.3938C268.149 62.3191 268.308 62.28 268.47 62.28C268.631 62.28 268.79 62.3191 268.933 62.3938L270.978 63.4694C271.143 63.554 271.328 63.5912 271.512 63.5769C271.697 63.5626 271.874 63.4974 272.024 63.3885C272.173 63.2796 272.29 63.1313 272.36 62.9601C272.431 62.7889 272.452 62.6016 272.423 62.4188L272.032 60.1424C272.006 59.9842 272.018 59.8219 272.068 59.6695C272.118 59.517 272.204 59.3789 272.319 59.2669L273.972 57.6547C274.104 57.5243 274.197 57.3599 274.241 57.1799C274.284 56.9999 274.277 56.8112 274.22 56.635C274.163 56.4588 274.058 56.3019 273.917 56.1818C273.776 56.0617 273.604 55.9832 273.421 55.9549L271.136 55.6235C270.976 55.5999 270.824 55.538 270.693 55.443C270.563 55.3481 270.457 55.2229 270.385 55.0781L269.363 53.0081C269.28 52.843 269.152 52.7041 268.995 52.6072C268.837 52.5102 268.655 52.4589 268.47 52.4589C268.285 52.4589 268.104 52.5102 267.946 52.6072C267.788 52.7041 267.661 52.843 267.577 53.0081Z" fill="#E8EDFE"/>
<path d="M270.2 80.1108L266.031 91.3613L282.402 79.0627L270.2 80.1108Z" fill="#1E65B6"/>
<path d="M138.197 129.762H60.6499C58.1533 129.647 55.7594 128.735 53.8197 127.159C51.8801 125.583 50.4969 123.427 49.8734 121.007L45.6383 102.663C44.5227 97.8278 47.537 93.9079 52.3724 93.9079H129.919C132.416 94.0224 134.81 94.9346 136.749 96.5105C138.689 98.0864 140.072 100.243 140.696 102.663L144.931 121.007C146.048 125.842 143.032 129.762 138.197 129.762Z" fill="#00B4FF"/>
<path d="M58.3379 106.206H89.6067" stroke="#E8EDFE" stroke-width="2.50151" stroke-miterlimit="10" stroke-linecap="round"/>
<path d="M97.2148 106.206H105.866" stroke="#E8EDFE" stroke-width="2.50151" stroke-miterlimit="10" stroke-linecap="round"/>
<path d="M60.9355 117.463H115.343" stroke="#E8EDFE" stroke-width="2.50151" stroke-miterlimit="10" stroke-linecap="round"/>
<path d="M123.578 117.463H132.23" stroke="#E8EDFE" stroke-width="2.50151" stroke-miterlimit="10" stroke-linecap="round"/>
<path d="M328.046 211.505H256.337C254.197 211.407 252.145 210.625 250.482 209.274C248.82 207.923 247.634 206.075 247.1 204L229.004 125.619C228.047 121.474 230.63 118.115 234.776 118.115H306.486C308.626 118.212 310.678 118.994 312.341 120.345C314.004 121.696 315.189 123.545 315.722 125.619L333.818 204C334.775 208.144 332.191 211.505 328.046 211.505Z" fill="#1E65B6"/>
<path d="M243.152 132.499H272.858" stroke="#E8EDFE" stroke-width="2.50151" stroke-miterlimit="10" stroke-linecap="round"/>
<path d="M250.055 146.98C250.119 147.19 250.132 147.412 250.093 147.629C250.054 147.845 249.964 148.048 249.83 148.223C249.696 148.397 249.522 148.536 249.323 148.629C249.124 148.723 248.906 148.767 248.686 148.758C248.179 148.735 247.693 148.549 247.299 148.229C246.905 147.909 246.623 147.471 246.496 146.98C246.432 146.77 246.418 146.547 246.458 146.331C246.497 146.115 246.587 145.911 246.721 145.737C246.855 145.563 247.029 145.424 247.228 145.33C247.427 145.237 247.645 145.193 247.864 145.201C248.372 145.225 248.858 145.41 249.252 145.73C249.646 146.05 249.927 146.488 250.055 146.98Z" fill="#E8EDFE"/>
<path d="M256.186 146.98H290.269" stroke="#E8EDFE" stroke-width="2.50151" stroke-miterlimit="10" stroke-linecap="round"/>
<path d="M297.928 146.98H304.494" stroke="#E8EDFE" stroke-width="2.50151" stroke-miterlimit="10" stroke-linecap="round"/>
<path d="M252.866 159.173C252.93 159.383 252.944 159.606 252.905 159.822C252.866 160.038 252.775 160.242 252.641 160.416C252.507 160.59 252.334 160.73 252.135 160.823C251.936 160.916 251.717 160.96 251.498 160.952C250.99 160.929 250.503 160.744 250.109 160.424C249.714 160.104 249.432 159.665 249.305 159.173C249.24 158.963 249.227 158.741 249.266 158.524C249.305 158.308 249.395 158.104 249.529 157.93C249.663 157.756 249.837 157.616 250.036 157.523C250.235 157.429 250.454 157.385 250.673 157.394C251.181 157.417 251.668 157.602 252.063 157.923C252.457 158.243 252.739 158.681 252.866 159.173Z" fill="#E8EDFE"/>
<path d="M259.004 159.175H302.78" stroke="#E8EDFE" stroke-width="2.50151" stroke-miterlimit="10" stroke-linecap="round"/>
<path d="M255.685 171.37C255.75 171.58 255.763 171.803 255.724 172.02C255.684 172.237 255.593 172.441 255.459 172.615C255.324 172.79 255.149 172.929 254.949 173.022C254.749 173.115 254.53 173.158 254.31 173.148C253.802 173.125 253.316 172.939 252.922 172.619C252.528 172.299 252.247 171.861 252.12 171.37C252.055 171.159 252.041 170.937 252.08 170.721C252.119 170.504 252.21 170.3 252.344 170.126C252.478 169.952 252.652 169.812 252.851 169.719C253.05 169.625 253.268 169.581 253.488 169.59C253.997 169.612 254.485 169.797 254.88 170.117C255.276 170.438 255.558 170.877 255.685 171.37Z" fill="#E8EDFE"/>
<path d="M261.816 171.37H274.324" stroke="#E8EDFE" stroke-width="2.50151" stroke-miterlimit="10" stroke-linecap="round"/>
<path d="M281.83 171.37H310.128" stroke="#E8EDFE" stroke-width="2.50151" stroke-miterlimit="10" stroke-linecap="round"/>
<path d="M263.67 179.402H287.903" stroke="#E8EDFE" stroke-width="2.50151" stroke-miterlimit="10" stroke-linecap="round"/>
<path d="M572.508 73.8445L569.59 90.8198L592.52 71.9759L572.508 73.8445Z" fill="#1E65B6"/>
<path d="M655.39 0H572.006C561.414 0 552.828 8.58619 552.828 19.1778V57.5346C552.828 68.1263 561.414 76.7124 572.006 76.7124H655.39C665.981 76.7124 674.568 68.1263 674.568 57.5346V19.1778C674.568 8.58619 665.981 0 655.39 0Z" fill="#1E65B6"/>
<path d="M580.188 47.064V45.0737L587.663 36.8913C588.54 35.933 589.262 35.1 589.83 34.3923C590.398 33.6773 590.818 33.0064 591.09 32.3799C591.371 31.7459 591.511 31.0825 591.511 30.3895C591.511 29.5934 591.319 28.9042 590.936 28.3218C590.56 27.7395 590.044 27.2898 589.388 26.9728C588.732 26.6558 587.994 26.4973 587.176 26.4973C586.306 26.4973 585.547 26.678 584.898 27.0392C584.257 27.393 583.759 27.8906 583.406 28.5319C583.059 29.1732 582.886 29.9251 582.886 30.7876H580.276C580.276 29.4607 580.582 28.296 581.194 27.2935C581.806 26.2909 582.639 25.5096 583.693 24.9493C584.755 24.3891 585.945 24.109 587.265 24.109C588.591 24.109 589.767 24.3891 590.792 24.9493C591.817 25.5096 592.62 26.2651 593.202 27.2161C593.785 28.167 594.076 29.2248 594.076 30.3895C594.076 31.2225 593.925 32.0371 593.623 32.8332C593.328 33.622 592.812 34.5029 592.075 35.4759C591.345 36.4416 590.331 37.621 589.034 39.0143L583.947 44.4545V44.6314H594.474V47.064H580.188ZM598.023 42.4199V40.1642L607.975 24.4186H609.612V27.9127H608.506L600.987 39.8104V39.9873H614.388V42.4199H598.023ZM608.683 47.064V41.7344V40.6839V24.4186H611.292V47.064H608.683ZM626.582 23.3571L619.284 50.4697H616.896L624.193 23.3571H626.582ZM630.339 47.064L640.467 27.0281V26.8512H628.791V24.4186H643.298V26.9839L633.213 47.064H630.339Z" fill="#E8EDFE"/>
</svg>
