<svg width="123" height="32" viewBox="0 0 123 32" fill="none" xmlns="http://www.w3.org/2000/svg">
<path d="M106.904 7.39719C106.301 6.3013 105.452 5.45198 104.356 4.84924C103.26 4.2465 102.027 3.94513 100.603 3.94513C99.2329 3.94513 98.0548 4.2465 97.0411 4.84924C96.2466 5.31499 95.6439 5.94513 95.2055 6.71226V4.35609H90.8494V23.4794H95.4795V12.2739C95.4795 11.4246 95.6439 10.7123 95.9726 10.0821C96.3014 9.47938 96.7672 9.01362 97.3425 8.68486C97.9179 8.35609 98.6028 8.19171 99.3425 8.19171C100.082 8.19171 100.767 8.35609 101.343 8.68486C101.918 9.01362 102.384 9.47938 102.712 10.0821C103.041 10.6849 103.206 11.4246 103.206 12.2739V23.4794H107.808V11.178C107.808 9.75335 107.507 8.49308 106.904 7.39719Z" fill="#1C2649"/>
<path d="M61.9726 4.35609V6.60267C61.3698 5.86294 60.6575 5.28759 59.863 4.84924C58.7945 4.2465 57.5342 3.94513 56.1095 3.94513C54.3561 3.94513 52.7945 4.35609 51.3972 5.15061C50.0273 5.97253 48.9315 7.06842 48.1095 8.46568C47.315 9.86294 46.9041 11.4794 46.9041 13.2876C46.9041 15.0684 47.315 16.6849 48.1095 18.1095C48.9041 19.5342 50.0273 20.6575 51.4246 21.4794C52.8219 22.3013 54.4109 22.7123 56.1643 22.7123C57.589 22.7123 58.8493 22.4109 59.9452 21.8356C60.6301 21.4794 61.2054 21.0136 61.726 20.4109V22.5205C61.726 22.7397 61.726 22.9588 61.6986 23.1506C61.5616 24.3561 61.0958 25.1232 60.2465 25.9725C58.1917 28.0273 54.8493 28.0273 52.7945 25.9725L49.6164 29.1506C51.5068 31.041 54.0273 31.9999 56.5205 31.9999C59.0137 31.9999 61.5068 31.041 63.4246 29.1506C64.9863 27.589 66.0548 25.6164 66.3013 23.3972C66.3287 23.0958 66.3561 22.8219 66.3561 22.4931V4.32869H61.9726V4.35609ZM61.0958 15.9999C60.6849 16.7671 60.0821 17.3698 59.3698 17.8082C58.6575 18.2465 57.7808 18.4657 56.7945 18.4657C55.8082 18.4657 54.9315 18.2465 54.1643 17.8082C53.3972 17.3698 52.7945 16.7671 52.3835 15.9725C51.9452 15.2054 51.726 14.3287 51.726 13.3424C51.726 12.3561 51.9452 11.4794 52.3835 10.7123C52.8219 9.94514 53.4246 9.34239 54.1917 8.87664C54.9589 8.43828 55.8356 8.21911 56.7945 8.21911C57.7534 8.21911 58.6027 8.43828 59.3424 8.87664C60.0821 9.315 60.6575 9.91774 61.0958 10.7123C61.5342 11.4794 61.7534 12.3561 61.7534 13.3424C61.726 14.3287 61.5068 15.2328 61.0958 15.9999Z" fill="#1C2649"/>
<path d="M0 23.6164V19.1232C2.52055 19.1232 4.60274 17.0685 4.60274 14.5205H9.0959C9.0959 19.5616 5.0137 23.6164 0 23.6164Z" fill="#1C2649"/>
<path d="M45.1234 13.863C45.1234 13.2329 45.0686 12.6301 44.959 12.0548C44.959 12.0274 44.959 12.0274 44.959 12C44.9042 11.7534 44.8494 11.5342 44.7946 11.315C44.7672 11.2328 44.7672 11.1507 44.7398 11.0685C44.685 10.8767 44.6302 10.7123 44.548 10.5479C44.4932 10.4109 44.4658 10.2739 44.4111 10.1644C44.3563 10.0274 44.3015 9.91778 44.2467 9.80819C44.1645 9.64381 44.0823 9.45203 44.0001 9.28764C43.9727 9.20545 43.9179 9.15066 43.8905 9.06847C43.7809 8.84929 43.6439 8.6575 43.5069 8.43833L43.4795 8.41093C43.1508 7.91778 42.7672 7.42463 42.3015 6.98627C40.9316 5.61641 39.233 4.71229 37.37 4.32873C37.37 4.32873 37.37 4.32873 37.3426 4.32873C37.0686 4.27394 36.7946 4.24654 36.5206 4.19175C36.4658 4.19175 36.4384 4.16435 36.3837 4.16435C36.0549 4.13695 35.7261 4.10956 35.3973 4.10956C35.0686 4.10956 34.7398 4.13695 34.411 4.16435C34.3562 4.16435 34.3289 4.19175 34.2741 4.19175C34.0001 4.21914 33.7261 4.27394 33.4521 4.32873C33.4521 4.32873 33.4521 4.32873 33.4247 4.32873C31.5617 4.71229 30.1097 5.61641 27.7809 7.91778L18.0823 17.6164C16.0275 19.6712 12.685 19.6712 10.6302 17.6164C8.5754 15.5616 8.5754 12.2192 10.6302 10.1644C11.6165 9.17806 12.959 8.63011 14.3562 8.63011C15.7535 8.63011 17.096 9.17806 18.0823 10.1644L21.2603 6.98627C19.4247 5.15065 16.959 4.13695 14.3562 4.13695C11.7535 4.13695 9.28773 5.15065 7.45211 6.98627C3.64389 10.7945 3.64389 16.9863 7.45211 20.7945C9.34253 22.6849 11.8631 23.6438 14.3562 23.6438C16.8494 23.6438 19.3425 22.6849 21.2603 20.7945L25.9453 16.137C26.3836 17.9178 27.2878 19.5068 28.5206 20.7671C29.8905 22.137 31.5891 23.0411 33.4521 23.4246C33.7261 23.4794 34.0001 23.5342 34.3015 23.5616C34.3563 23.5616 34.3836 23.589 34.4384 23.589C34.7672 23.6164 35.096 23.6438 35.4247 23.6438C38.0275 23.6438 40.4932 22.6301 42.3289 20.7945C44.1645 18.8767 45.1234 16.3561 45.1234 13.863ZM39.096 17.589C37.8357 18.8493 36.0823 19.3424 34.4384 19.0411C34.411 19.0411 34.3836 19.0411 34.3289 19.0137C34.2193 18.9863 34.1097 18.9589 34.0001 18.9315C33.9453 18.9041 33.8905 18.9041 33.8357 18.8767C33.7535 18.8493 33.6713 18.8219 33.5891 18.7945C33.5069 18.7671 33.4247 18.7397 33.3426 18.7123C33.2878 18.6849 33.233 18.6575 33.1782 18.6301C33.0686 18.5753 32.959 18.5479 32.8768 18.4931C32.8494 18.4657 32.822 18.4657 32.7946 18.4383C31.2056 17.5342 30.1097 15.8082 30.1097 13.8356C30.1097 11.2876 31.9179 9.17805 34.3015 8.6849C34.3015 8.6849 34.3015 8.6849 34.3289 8.6849C34.4658 8.6575 34.6302 8.63011 34.7672 8.60271C34.7946 8.60271 34.822 8.60271 34.8494 8.60271C35.0138 8.57531 35.2056 8.57531 35.3973 8.57531C35.5891 8.57531 35.7535 8.57531 35.9453 8.60271C35.9727 8.60271 36.0001 8.60271 36.0275 8.60271C36.1919 8.63011 36.3289 8.63011 36.4658 8.6849C36.4658 8.6849 36.4658 8.6849 36.4932 8.6849C37.8631 8.95887 39.0412 9.78079 39.7809 10.9041C39.8631 11.0137 39.9179 11.1233 40.0001 11.2603C40.0275 11.2876 40.0549 11.315 40.0549 11.3698C40.1097 11.452 40.1371 11.5616 40.1919 11.6712C40.2193 11.726 40.2467 11.8082 40.2741 11.863C40.3015 11.9452 40.3289 12 40.3563 12.0822C40.3837 12.1644 40.4384 12.274 40.4658 12.3561C40.4932 12.4109 40.4932 12.4657 40.4932 12.4931C40.5206 12.6027 40.548 12.7397 40.5754 12.8493C40.5754 12.8767 40.5754 12.8767 40.5754 12.9041C40.8494 14.5479 40.3837 16.3287 39.096 17.589Z" fill="#1C2649"/>
<path d="M87.3699 9.69869C86.9589 8.5754 86.3288 7.5891 85.5343 6.73978C84.7398 5.86307 83.7809 5.20553 82.6302 4.71238C81.5069 4.21923 80.1644 3.97266 78.685 3.97266C76.8767 3.97266 75.2603 4.41101 73.8356 5.26032C72.411 6.13704 71.2603 7.31513 70.4384 8.79458C69.5891 10.274 69.1781 11.9727 69.1781 13.9179C69.1781 14.8768 69.2877 15.7809 69.5069 16.6302C69.9178 18.411 70.7945 20.0275 72.1096 21.3425C74 23.2329 76.5206 24.1918 79.0137 24.1918C81.5069 24.1918 84 23.2329 85.9179 21.3425L82.7398 18.1644C80.685 20.2192 77.3425 20.2192 75.2877 18.1644C74.4932 17.3699 74 16.3836 73.8356 15.2877H87.7809C87.8631 15.0138 87.9452 14.685 87.9726 14.3562C88 14.0275 88.0274 13.6713 88.0274 13.3151C88 12.0001 87.7809 10.7946 87.3699 9.69869ZM74.0822 11.6987C74.1644 11.2877 74.274 10.9316 74.411 10.5754C74.7945 9.67129 75.3699 8.95896 76.1096 8.46581C76.8493 7.97266 77.7261 7.72608 78.685 7.72608C79.6987 7.72608 80.548 7.97266 81.2603 8.46581C81.9726 8.95896 82.4932 9.61649 82.7946 10.4658C82.9315 10.8494 83.0137 11.2603 83.0411 11.6987H74.0822Z" fill="#1C2649"/>
<path d="M117.534 14.6301V8.46576H122.11V4.35617H117.534V0H113.014V1.47945C113.014 2.41096 112.767 3.12329 112.247 3.61644C111.754 4.10959 111.014 4.35617 110.082 4.35617H109.726V8.46576H112.986V14.548C112.986 19.5617 117.069 23.6165 122.082 23.6165V19.1233C119.617 19.1507 117.562 17.1233 117.534 14.6301Z" fill="#1C2649"/>
</svg>
